<svg width="50" height="50" viewBox="0 0 50 50" fill="none" xmlns="http://www.w3.org/2000/svg">
<path d="M12.6787 49.8232C9.70517 49.6879 8.08987 49.1931 7.01548 48.774C5.59188 48.2198 4.57693 47.56 3.50849 46.493C2.44004 45.426 1.77876 44.4111 1.22745 42.9875C0.808393 41.9131 0.31355 40.2978 0.178322 37.3243C0.0297203 34.11 0 33.1456 0 25.0022C0 16.8589 0.0326924 15.8959 0.176836 12.6787C0.312063 9.70517 0.809879 8.09285 1.22596 7.01548C1.78025 5.59188 2.44153 4.57693 3.507 3.507C4.57396 2.44004 5.58891 1.77728 7.014 1.22596C8.08839 0.806907 9.70369 0.312063 12.6772 0.176836C15.8929 0.0297203 16.8589 0 24.9993 0C33.1426 0 34.1056 0.0326924 37.3228 0.176836C40.2963 0.312063 41.9086 0.809879 42.986 1.22596C44.4096 1.77728 45.4246 2.44004 46.493 3.507C47.5614 4.57396 48.2198 5.59039 48.774 7.014C49.1931 8.08839 49.6879 9.70369 49.8232 12.6772C49.9703 15.8944 50 16.8574 50 25.0007C50 33.1411 49.9703 34.1071 49.8232 37.3243C49.6879 40.2978 49.1901 41.9131 48.774 42.9875C48.2198 44.4111 47.56 45.426 46.493 46.493C45.426 47.56 44.4096 48.2198 42.986 48.774C41.9116 49.1931 40.2963 49.6879 37.3228 49.8232C34.1085 49.9703 33.1426 50 24.9993 50C16.8589 50 15.8929 49.9718 12.6787 49.8232Z" fill="url(#paint0_radial_343_7000)"/>
<path d="M20.0008 25C20.0008 22.2387 22.2387 19.9996 25 19.9996C27.7613 19.9996 30.0004 22.2387 30.0004 25C30.0004 27.7613 27.7613 30.0004 25 30.0004C22.2387 30.0004 20.0008 27.7613 20.0008 25ZM17.2977 25C17.2977 29.254 20.746 32.7023 25 32.7023C29.254 32.7023 32.7023 29.254 32.7023 25C32.7023 20.746 29.254 17.2977 25 17.2977C20.746 17.2977 17.2978 20.7458 17.2978 25H17.2977ZM31.2074 16.9923C31.2072 17.3483 31.3126 17.6963 31.5103 17.9924C31.708 18.2885 31.989 18.5193 32.3179 18.6557C32.6467 18.7921 33.0086 18.8279 33.3578 18.7586C33.707 18.6892 34.0278 18.5179 34.2796 18.2663C34.5315 18.0147 34.703 17.694 34.7726 17.3449C34.8422 16.9957 34.8067 16.6338 34.6706 16.3048C34.5345 15.9759 34.3039 15.6947 34.008 15.4968C33.7121 15.2989 33.3641 15.1931 33.0081 15.193H33.0074C32.5302 15.1932 32.0726 15.3828 31.7351 15.7202C31.3976 16.0576 31.2078 16.5151 31.2074 16.9923ZM18.94 37.2098C17.4776 37.1432 16.6827 36.8996 16.1544 36.6938C15.4541 36.4211 14.9544 36.0964 14.4291 35.5718C13.9037 35.0471 13.5785 34.5479 13.3071 33.8476C13.1012 33.3196 12.8576 32.5245 12.7911 31.062C12.7184 29.4809 12.7038 29.006 12.7038 25.0002C12.7038 20.9945 12.7196 20.5209 12.7911 18.9384C12.8577 17.476 13.1031 16.6824 13.3071 16.1529C13.5797 15.4526 13.9044 14.9529 14.4291 14.4275C14.9537 13.9022 15.4529 13.577 16.1544 13.3055C16.6824 13.0996 17.4776 12.856 18.94 12.7895C20.5211 12.7168 20.9961 12.7023 25 12.7023C29.0039 12.7023 29.4794 12.7178 31.0618 12.7898C32.5242 12.8564 33.3178 13.1018 33.8474 13.3058C34.5477 13.5772 35.0474 13.9031 35.5727 14.4278C36.0981 14.9524 36.4221 15.4528 36.6947 16.1531C36.9006 16.6811 37.1442 17.4762 37.2107 18.9387C37.2834 20.5211 37.298 20.9948 37.298 25.0005C37.298 29.0062 37.2834 29.4798 37.2107 31.0623C37.1441 32.5247 36.8993 33.3196 36.6947 33.8478C36.4221 34.5482 36.0974 35.0478 35.5727 35.572C35.0481 36.0962 34.5477 36.4214 33.8474 36.694C33.3194 36.8999 32.5242 37.1435 31.0618 37.21C29.4807 37.2827 29.0057 37.2972 25 37.2972C20.9943 37.2972 20.5206 37.2827 18.94 37.21V37.2098ZM18.8158 10.0908C17.219 10.1636 16.1278 10.4168 15.1749 10.7876C14.1886 11.1705 13.3526 11.6842 12.5177 12.5177C11.6829 13.3512 11.1705 14.1874 10.7876 15.1749C10.4168 16.1284 10.1636 17.219 10.0908 18.8158C10.0169 20.4152 10 20.9265 10 25C10 29.0735 10.0169 29.5848 10.0908 31.1842C10.1636 32.7812 10.4168 33.8716 10.7876 34.8251C11.1705 35.8114 11.683 36.6491 12.5177 37.4823C13.3524 38.3154 14.1874 38.8284 15.1749 39.2124C16.1296 39.5832 17.219 39.8364 18.8158 39.9092C20.416 39.9819 20.9265 40 25 40C29.0735 40 29.5848 39.9831 31.1842 39.9092C32.7812 39.8364 33.8716 39.5832 34.8251 39.2124C35.8114 38.8284 36.6474 38.3158 37.4823 37.4823C38.3171 36.6488 38.8284 35.8114 39.2124 34.8251C39.5832 33.8716 39.8376 32.781 39.9092 31.1842C39.9819 29.5836 39.9988 29.0735 39.9988 25C39.9988 20.9265 39.9819 20.4152 39.9092 18.8158C39.8364 17.2188 39.5832 16.1278 39.2124 15.1749C38.8284 14.1886 38.3158 13.3526 37.4823 12.5177C36.6488 11.6829 35.8114 11.1705 34.8263 10.7876C33.8716 10.4168 32.781 10.1624 31.1854 10.0908C29.5858 10.0178 29.0747 10 25.0018 10C20.9289 10 20.4166 10.0169 18.8164 10.0908" fill="white"/>
<defs>
<radialGradient id="paint0_radial_343_7000" cx="0" cy="0" r="1" gradientUnits="userSpaceOnUse" gradientTransform="translate(3.23595 48.9047) scale(63.4814)">
<stop offset="0.09" stop-color="#FA8F21"/>
<stop offset="0.78" stop-color="#D82D7E"/>
</radialGradient>
</defs>
</svg>
