<svg width="40" height="40" viewBox="0 0 40 40" fill="none" xmlns="http://www.w3.org/2000/svg">
<rect width="40" height="40" rx="20" fill="#34ABDF"/>
<path d="M16.3346 29.1641C15.6846 29.1641 15.8013 28.9141 15.568 28.2974L13.668 22.0307L25.4679 14.6641L26.8512 15.0307L25.7012 18.1641L16.3346 29.1641Z" fill="#C8DAEA"/>
<path d="M16.332 29.1666C16.832 29.1666 17.0487 28.9333 17.332 28.6666C17.7654 28.2499 23.332 22.8333 23.332 22.8333L19.9154 22L16.7487 24L16.332 28.9999V29.1666Z" fill="#A9C9DD"/>
<path d="M16.6666 24.0661L24.7333 30.0161C25.6499 30.5161 26.3166 30.2661 26.5499 29.1661L29.8333 13.6994C30.1666 12.3494 29.3166 11.7494 28.4333 12.1494L9.16657 19.5828C7.8499 20.1161 7.86656 20.8494 8.93323 21.1661L13.8832 22.7161L25.3333 15.4994C25.8666 15.1661 26.3666 15.3494 25.9666 15.7161L16.6666 24.0661Z" fill="url(#paint0_linear_343_6387)"/>
<defs>
<linearGradient id="paint0_linear_343_6387" x1="21.4984" y1="20.6253" x2="25.6651" y2="27.2919" gradientUnits="userSpaceOnUse">
<stop stop-color="#EFF7FC"/>
<stop offset="1" stop-color="white"/>
</linearGradient>
</defs>
</svg>
