<svg width="50" height="50" viewBox="0 0 50 50" fill="none" xmlns="http://www.w3.org/2000/svg">
<path fill-rule="evenodd" clip-rule="evenodd" d="M5 0H45C47.7616 0 50 2.2384 50 5V45C50 47.7616 47.7616 50 45 50H5C2.2384 50 0 47.7616 0 45V5C0 2.2384 2.2384 0 5 0Z" fill="#010101"/>
<path fill-rule="evenodd" clip-rule="evenodd" d="M30.928 20.8252C32.8651 22.2092 35.2383 23.0236 37.8013 23.0236V18.0939C37.3162 18.0941 36.8324 18.0435 36.3578 17.9429V21.8233C33.795 21.8233 31.4222 21.0089 29.4845 19.625V29.6848C29.4845 34.7173 25.4029 38.7966 20.3681 38.7966C18.4896 38.7966 16.7435 38.229 15.293 37.2555C16.9485 38.9473 19.2571 39.9969 21.8112 39.9969C26.8463 39.9969 30.9281 35.9175 30.9281 30.8849V20.8252H30.928ZM32.7086 15.8518C31.7186 14.7709 31.0687 13.3738 30.928 11.8293V11.1953H29.5601C29.9044 13.1583 31.0788 14.8353 32.7086 15.8518ZM18.4774 33.3939C17.9243 32.669 17.6254 31.7823 17.6267 30.8705C17.6267 28.5688 19.4937 26.7027 21.797 26.7027C22.2262 26.7024 22.6529 26.7683 23.0621 26.8979V21.8582C22.584 21.7927 22.1016 21.765 21.6192 21.7752V25.6979C21.2098 25.5682 20.783 25.5023 20.3536 25.5026C18.0503 25.5026 16.1835 27.3688 16.1835 29.6706C16.1835 31.2982 17.1166 32.7075 18.4774 33.3939Z" fill="#EE1D52"/>
<path fill-rule="evenodd" clip-rule="evenodd" d="M29.4833 19.625C31.4209 21.0089 33.7938 21.8233 36.3566 21.8233V17.9429C34.9261 17.6385 33.6596 16.8912 32.7074 15.8518C31.0775 14.8353 29.9031 13.1583 29.5589 11.1953H25.9659V30.8847C25.9578 33.18 24.094 35.0385 21.7956 35.0385C20.4412 35.0385 19.238 34.3934 18.476 33.3939C17.1152 32.7075 16.182 31.2982 16.182 29.6706C16.182 27.3688 18.0489 25.5026 20.3522 25.5026C20.7934 25.5026 21.2188 25.5713 21.6177 25.6979V21.7752C16.6715 21.8773 12.6934 25.9168 12.6934 30.8849C12.6934 33.3648 13.684 35.6131 15.2917 37.2557C16.7423 38.2292 18.4884 38.7968 20.3669 38.7968C25.4017 38.7968 29.4833 34.7173 29.4833 29.685V19.625Z" fill="white"/>
<path fill-rule="evenodd" clip-rule="evenodd" d="M36.3563 17.9477V16.8984C35.0662 16.9004 33.8017 16.5393 32.7071 15.8564C33.676 16.9166 34.9518 17.6477 36.3563 17.9477ZM29.5586 11.2001C29.5258 11.0125 29.5005 10.8236 29.4831 10.634V10H24.5221V29.6896C24.5142 31.9847 22.6505 33.8432 20.352 33.8432C19.6771 33.8432 19.0401 33.6832 18.4758 33.3986C19.2378 34.3981 20.4411 35.0433 21.7955 35.0433C24.0936 35.0433 25.9576 33.1848 25.9657 30.8895V11.2001H29.5586ZM21.6177 21.7799V20.6629C21.2032 20.6062 20.7853 20.5779 20.3669 20.5781C15.3316 20.5781 11.25 24.6576 11.25 29.6896C11.25 32.8444 12.8541 35.6248 15.2918 37.2602C13.6841 35.6177 12.6934 33.3694 12.6934 30.8895C12.6934 25.9216 16.6713 21.8821 21.6177 21.7799Z" fill="#69C9D0"/>
</svg>
