<svg width="388" height="44" viewBox="0 0 388 44" fill="none" xmlns="http://www.w3.org/2000/svg">
<path d="M19.8009 13.8369C20.4114 13.0733 20.8258 12.0478 20.7165 11C19.8227 11.0444 18.732 11.5897 18.1005 12.3539C17.5336 13.0084 17.0317 14.0768 17.1626 15.0807C18.1659 15.1677 19.1683 14.5792 19.8009 13.8369Z" fill="black"/>
<path d="M20.7056 15.2753C19.2485 15.1886 18.0097 16.1023 17.3138 16.1023C16.6176 16.1023 15.5521 15.3191 14.3996 15.3402C12.8997 15.3622 11.5078 16.2103 10.7466 17.5592C9.18102 20.2577 10.3335 24.2604 11.856 26.4582C12.5953 27.5454 13.4864 28.7426 14.6605 28.6996C15.7698 28.6561 16.2046 27.9813 17.553 27.9813C18.9005 27.9813 19.2921 28.6996 20.4664 28.6779C21.6842 28.6561 22.4455 27.59 23.1848 26.5017C24.033 25.2622 24.3802 24.0654 24.4021 23.9997C24.3802 23.978 22.0539 23.0855 22.0323 20.4095C22.0103 18.1688 23.8588 17.1031 23.9457 17.037C22.9019 15.4932 21.271 15.3191 20.7056 15.2753Z" fill="black"/>
<path d="M33.3926 12.2422C36.5595 12.2422 38.7647 14.4252 38.7647 17.6034C38.7647 20.793 36.5141 22.9873 33.3132 22.9873H29.8068V28.5634H27.2734V12.2422H33.3926V12.2422ZM29.8068 20.8608H32.7136C34.9193 20.8608 36.1746 19.6734 36.1746 17.6147C36.1746 15.5564 34.9193 14.38 32.725 14.38H29.8068V20.8608Z" fill="black"/>
<path d="M39.4258 25.1811C39.4258 23.0998 41.0206 21.8218 43.8484 21.6634L47.1057 21.4712V20.5551C47.1057 19.2317 46.2121 18.44 44.7194 18.44C43.3052 18.44 42.4229 19.1185 42.2083 20.1818H39.9009C40.0366 18.0327 41.8688 16.4492 44.8097 16.4492C47.6938 16.4492 49.5373 17.9762 49.5373 20.3627V28.5629H47.196V26.6062H47.1397C46.4499 27.9296 44.9454 28.7664 43.3846 28.7664C41.0546 28.7664 39.4258 27.3187 39.4258 25.1811ZM47.1057 24.1066V23.1679L44.1761 23.3487C42.717 23.4506 41.8915 24.0953 41.8915 25.1133C41.8915 26.1537 42.7511 26.8324 44.0631 26.8324C45.7709 26.8324 47.1057 25.6561 47.1057 24.1066Z" fill="black"/>
<path d="M51.7486 32.9401V30.9607C51.9293 31.0059 52.3364 31.0059 52.5401 31.0059C53.6711 31.0059 54.282 30.5309 54.655 29.3094C54.655 29.2867 54.8701 28.5855 54.8701 28.5742L50.5723 16.6641H53.2186L56.2276 26.3461H56.2725L59.2815 16.6641H61.8602L57.4035 29.1848C56.386 32.0692 55.2096 32.9966 52.7439 32.9966C52.5401 32.9966 51.9293 32.9739 51.7486 32.9401Z" fill="black"/>
<path d="M108.17 21.6989V28.1851H106.111V12.168H111.568C112.951 12.168 114.131 12.629 115.096 13.551C116.082 14.473 116.575 15.5987 116.575 16.9281C116.575 18.2897 116.082 19.4154 115.096 20.3266C114.141 21.2379 112.962 21.6882 111.568 21.6882H108.17V21.6989ZM108.17 14.1406V19.7263H111.611C112.426 19.7263 113.112 19.4475 113.648 18.9007C114.195 18.354 114.474 17.6893 114.474 16.9388C114.474 16.1991 114.195 15.5451 113.648 14.9983C113.112 14.4301 112.437 14.1514 111.611 14.1514H108.17V14.1406Z" fill="#3C4043"/>
<path d="M121.957 16.8633C123.48 16.8633 124.68 17.2707 125.56 18.0855C126.439 18.9003 126.878 20.0153 126.878 21.4304V28.1846H124.916V26.6623H124.831C123.984 27.9166 122.847 28.5384 121.432 28.5384C120.221 28.5384 119.213 28.1846 118.398 27.4663C117.583 26.748 117.176 25.8582 117.176 24.7861C117.176 23.6497 117.605 22.7491 118.462 22.0844C119.32 21.409 120.467 21.0766 121.893 21.0766C123.115 21.0766 124.123 21.3018 124.906 21.7521V21.2803C124.906 20.562 124.627 19.9616 124.059 19.4578C123.49 18.9539 122.826 18.7073 122.065 18.7073C120.917 18.7073 120.006 19.1897 119.341 20.1653L117.53 19.0289C118.527 17.5816 120.006 16.8633 121.957 16.8633ZM119.299 24.8182C119.299 25.3543 119.524 25.8046 119.985 26.1584C120.435 26.5122 120.971 26.6944 121.582 26.6944C122.451 26.6944 123.222 26.3728 123.898 25.7295C124.573 25.0863 124.916 24.3358 124.916 23.4674C124.273 22.9635 123.383 22.7062 122.236 22.7062C121.4 22.7062 120.703 22.9099 120.145 23.3066C119.577 23.7247 119.299 24.2286 119.299 24.8182Z" fill="#3C4043"/>
<path d="M138.07 17.2188L131.209 33H129.086L131.638 27.4787L127.113 17.2188H129.354L132.613 25.0879H132.656L135.829 17.2188H138.07Z" fill="#3C4043"/>
<path d="M99.9824 20.3918C99.9824 19.7207 99.9223 19.0785 99.8109 18.4609H91.1826V21.9989L96.1518 21.9999C95.9502 23.1771 95.3016 24.1806 94.3078 24.8496V27.1449H97.2657C98.9928 25.5464 99.9824 23.1835 99.9824 20.3918Z" fill="#4285F4"/>
<path d="M94.3086 24.8482C93.4853 25.4036 92.425 25.7284 91.1845 25.7284C88.7884 25.7284 86.7557 24.1139 86.0278 21.9375H82.9766V24.3047C84.4882 27.3044 87.5952 29.3629 91.1845 29.3629C93.6654 29.3629 95.7495 28.547 97.2666 27.1425L94.3086 24.8482Z" fill="#34A853"/>
<path d="M85.7405 20.183C85.7405 19.5719 85.8424 18.9811 86.0279 18.4258V16.0586H82.9767C82.3516 17.299 82 18.6992 82 20.183C82 21.6667 82.3527 23.0669 82.9767 24.3073L86.0279 21.9401C85.8424 21.3848 85.7405 20.7941 85.7405 20.183Z" fill="#FABB05"/>
<path d="M91.1845 14.6344C92.5386 14.6344 93.7511 15.1008 94.7085 16.0121L97.3298 13.3929C95.7377 11.9102 93.6622 11 91.1845 11C87.5962 11 84.4882 13.0584 82.9766 16.0582L86.0278 18.4253C86.7557 16.249 88.7884 14.6344 91.1845 14.6344Z" fill="#E94235"/>
<path fill-rule="evenodd" clip-rule="evenodd" d="M363.401 27.0036L363.201 26.832C362.715 26.4174 362.629 25.6597 363.072 25.1736L368.276 19.226C368.691 18.7399 369.449 18.6542 369.935 19.0974L370.135 19.2689C370.621 19.6835 370.707 20.4413 370.263 20.9274L365.059 26.8749C364.645 27.361 363.915 27.4182 363.401 27.0036Z" fill="url(#paint0_linear_539_2653)"/>
<path opacity="0.4" fill-rule="evenodd" clip-rule="evenodd" d="M367.576 20.255L367.475 20.1406L366.675 21.0556L366.761 21.1557C368.133 22.5282 367.547 23.915 367.232 24.4011L367.347 24.2725C367.533 24.058 367.819 23.7292 368.119 23.3717C368.434 22.8284 368.877 21.5417 367.576 20.255Z" fill="url(#paint1_linear_539_2653)"/>
<path opacity="0.4" fill-rule="evenodd" clip-rule="evenodd" d="M369.291 22.0398L369.506 21.7967C369.52 21.7681 369.549 21.7395 369.563 21.7109C369.334 21.9683 369.091 22.2399 368.862 22.5116C369.034 22.3257 369.177 22.1684 369.291 22.0398Z" fill="url(#paint2_radial_539_2653)"/>
<path fill-rule="evenodd" clip-rule="evenodd" d="M370.292 19.4119L365.088 13.4643C364.673 12.9782 363.915 12.8924 363.429 13.3356L363.229 13.5072C362.743 13.9218 362.657 14.6796 363.1 15.1657L367.49 20.141L367.59 20.2554C368.891 21.5564 368.447 22.8431 368.119 23.3864C368.376 23.0862 368.633 22.7859 368.876 22.5143C369.105 22.2427 369.348 21.971 369.577 21.7137C369.806 21.4563 370.02 21.2133 370.163 21.056C370.663 20.5699 370.735 19.898 370.292 19.4119Z" fill="url(#paint3_linear_539_2653)"/>
<path fill-rule="evenodd" clip-rule="evenodd" d="M370.005 27.0036L369.805 26.832C369.319 26.4174 369.233 25.6597 369.676 25.1736L374.881 19.226C375.295 18.7399 376.053 18.6542 376.539 19.0974L376.739 19.2689C377.225 19.6836 377.311 20.4413 376.868 20.9274L371.664 26.8749C371.249 27.361 370.52 27.4182 370.005 27.0036Z" fill="url(#paint4_linear_539_2653)"/>
<path opacity="0.4" fill-rule="evenodd" clip-rule="evenodd" d="M374.238 20.1964L374.138 20.082L373.337 20.997L373.423 21.0971C374.795 22.4696 374.209 23.8564 373.894 24.3425L374.009 24.2139C374.195 23.9994 374.481 23.6706 374.781 23.3132C375.095 22.7699 375.539 21.4831 374.238 20.1964Z" fill="url(#paint5_linear_539_2653)"/>
<path opacity="0.4" fill-rule="evenodd" clip-rule="evenodd" d="M375.882 22.0398L376.096 21.7967C376.111 21.7681 376.139 21.7395 376.154 21.7109C375.925 21.9683 375.682 22.2399 375.453 22.5116C375.625 22.3257 375.782 22.1685 375.882 22.0398Z" fill="url(#paint6_radial_539_2653)"/>
<path fill-rule="evenodd" clip-rule="evenodd" d="M376.883 19.4119L371.678 13.4643C371.264 12.9782 370.506 12.8924 370.02 13.3356L369.82 13.5072C369.334 13.9218 369.248 14.6796 369.691 15.1657L374.08 20.141L374.18 20.2554C375.482 21.5564 375.038 22.8431 374.709 23.3864C374.967 23.0862 375.224 22.786 375.467 22.5143C375.696 22.2427 375.939 21.971 376.168 21.7137C376.397 21.4563 376.611 21.2133 376.754 21.056C377.254 20.5699 377.326 19.898 376.883 19.4119Z" fill="url(#paint7_linear_539_2653)"/>
<path fill-rule="evenodd" clip-rule="evenodd" d="M290.315 26.9526C290.114 26.7525 290 26.4522 290 26.0805V14.3141C290 13.9281 290.114 13.6278 290.357 13.3848C290.6 13.1417 290.901 13.0273 291.287 13.0273C291.673 13.0273 292.016 13.1417 292.245 13.3848C292.488 13.6278 292.602 13.9281 292.602 14.3141V25.1655H298.221C299.021 25.1655 299.436 25.5229 299.436 26.2235C299.436 26.924 299.021 27.2815 298.221 27.2815H291.215C290.829 27.2815 290.529 27.1671 290.315 26.9526Z" fill="#4B4C4B"/>
<path fill-rule="evenodd" clip-rule="evenodd" d="M301.467 27.0371C301.224 26.794 301.109 26.4795 301.109 26.0792V14.2984C301.109 13.9124 301.224 13.6122 301.467 13.3691C301.71 13.1261 302.01 13.0117 302.396 13.0117C302.782 13.0117 303.125 13.1261 303.354 13.3691C303.597 13.6122 303.711 13.9124 303.711 14.2984V26.0792C303.711 26.4652 303.597 26.794 303.354 27.0371C303.111 27.2801 302.796 27.3945 302.396 27.3945C302.024 27.3945 301.71 27.2801 301.467 27.0371Z" fill="#4B4C4B"/>
<path fill-rule="evenodd" clip-rule="evenodd" d="M318.579 29.9562C318.579 29.7132 318.494 29.4844 318.351 29.2414L317.636 28.1691C317.221 27.4972 316.721 27.0396 316.106 26.8395C317.293 26.3105 318.208 25.4813 318.837 24.3375C319.48 23.2081 319.795 21.8213 319.795 20.2343C319.795 18.7617 319.523 17.475 318.98 16.3884C318.436 15.3161 317.664 14.4726 316.649 13.8721C315.649 13.3002 314.448 13 313.089 13C311.703 13 310.516 13.2716 309.501 13.8721C308.5 14.4726 307.714 15.3018 307.17 16.3884C306.641 17.4893 306.355 18.7617 306.355 20.2343C306.355 21.6926 306.627 22.9793 307.17 24.0802C307.714 25.1525 308.486 25.996 309.501 26.5964C310.516 27.1683 311.703 27.4686 313.089 27.4686C313.576 27.4686 313.962 27.5544 314.262 27.6973C314.562 27.8403 314.805 28.069 314.991 28.3836L316.163 30.328C316.306 30.5425 316.492 30.7141 316.692 30.8284C316.907 30.9428 317.135 31 317.378 31C317.693 31 317.979 30.8856 318.222 30.6998C318.465 30.5139 318.579 30.2565 318.579 29.9562ZM317.207 20.2057C317.207 21.8641 316.835 23.1509 316.106 24.0516C315.377 24.9523 314.362 25.3955 313.061 25.3955C311.76 25.3955 310.73 24.9523 310.001 24.0516C309.272 23.1509 308.9 21.8927 308.9 20.2057C308.9 18.5186 309.272 17.2605 310.001 16.3598C310.73 15.4734 311.746 15.0302 313.061 15.0302C314.376 15.0302 315.377 15.4591 316.106 16.3598C316.835 17.2605 317.207 18.5186 317.207 20.2057Z" fill="#4B4C4B"/>
<path fill-rule="evenodd" clip-rule="evenodd" d="M322.583 26.082C322.583 26.4823 322.697 26.7968 322.94 27.0399C323.155 27.2829 323.484 27.3973 323.87 27.4116C324.27 27.4116 324.585 27.2972 324.828 27.0542C325.071 26.8254 325.185 26.5109 325.185 26.0963V21.7786H328.774C330.289 21.7786 331.461 21.4069 332.305 20.6348C333.148 19.8771 333.577 18.8048 333.577 17.4466C333.577 16.0884 333.148 15.0161 332.305 14.2727C331.461 13.5006 330.289 13.1289 328.774 13.1289H323.841C323.455 13.1289 323.155 13.2433 322.926 13.4434C322.697 13.6579 322.583 13.9581 322.583 14.3442V26.082ZM331.118 17.4752C331.118 19.0193 330.218 19.8056 328.445 19.8056L325.185 19.7913V15.1448H328.445C330.218 15.1448 331.118 15.9311 331.118 17.4752Z" fill="#4B4C4B"/>
<path fill-rule="evenodd" clip-rule="evenodd" d="M346.887 27.0396C347.131 26.8109 347.259 26.5536 347.259 26.2533C347.259 26.0675 347.216 25.9102 347.159 25.7243L341.598 13.8149C341.469 13.5433 341.283 13.3431 341.04 13.2002C340.797 13.0715 340.54 13 340.254 13C339.968 13 339.71 13.0572 339.467 13.2002C339.21 13.3431 339.024 13.5576 338.91 13.8149L333.362 25.7243C333.291 25.8959 333.248 26.0818 333.248 26.2533C333.248 26.5679 333.362 26.8395 333.62 27.0396C333.863 27.2398 334.163 27.3542 334.463 27.3542C334.692 27.3542 334.892 27.297 335.078 27.1826C335.264 27.0682 335.407 26.8967 335.521 26.6536L336.737 23.9658H343.771L344.986 26.6536C345.086 26.8824 345.243 27.0682 345.429 27.1826C345.615 27.297 345.83 27.3542 346.03 27.3542C346.359 27.3542 346.644 27.2398 346.887 27.0396ZM342.913 21.9642H337.609L340.254 16.0167L342.913 21.9642Z" fill="#4B4C4B"/>
<path fill-rule="evenodd" clip-rule="evenodd" d="M357.267 13.026C357.567 13.026 357.839 13.1404 358.082 13.3834C358.325 13.6265 358.439 13.8838 358.439 14.227C358.439 14.4843 358.339 14.756 358.139 14.999L353.578 20.5605V26.1221C353.578 26.5367 353.464 26.8512 353.221 27.0943C352.978 27.3373 352.678 27.4374 352.306 27.4374C351.92 27.4374 351.591 27.323 351.348 27.0943C351.105 26.8655 350.991 26.551 350.991 26.1221V20.5605L346.458 14.9847C346.258 14.7417 346.158 14.4843 346.158 14.2127C346.158 13.8981 346.273 13.6122 346.516 13.3691C346.759 13.1261 347.045 13.0117 347.331 13.0117C347.674 13.0117 347.945 13.1547 348.188 13.4549L352.292 18.5447L356.381 13.4549C356.624 13.169 356.924 13.026 357.267 13.026Z" fill="#4B4C4B"/>
<path d="M184.645 12.5352H174.145V31.4039H184.645V12.5352Z" fill="#FF5F00"/>
<path d="M174.809 22C174.807 20.1828 175.219 18.389 176.013 16.7545C176.807 15.12 177.963 13.6875 179.392 12.5656C177.622 11.1741 175.496 10.3088 173.257 10.0685C171.018 9.82824 168.757 10.2227 166.732 11.2068C164.707 12.1908 162.999 13.7249 161.805 15.6335C160.61 17.5421 159.977 19.7483 159.977 22C159.977 24.2516 160.61 26.4578 161.805 28.3665C162.999 30.2751 164.707 31.8091 166.732 32.7932C168.757 33.7773 171.018 34.1717 173.257 33.9314C175.496 33.6911 177.622 32.8258 179.392 31.4344C177.963 30.3124 176.807 28.88 176.013 27.2455C175.219 25.6109 174.807 23.8172 174.809 22Z" fill="#EB001B"/>
<path d="M198.81 22C198.81 24.2516 198.176 26.4578 196.982 28.3664C195.787 30.275 194.08 31.8091 192.055 32.7932C190.029 33.7773 187.768 34.1717 185.529 33.9314C183.291 33.6911 181.165 32.8258 179.395 31.4344C180.823 30.3113 181.977 28.8786 182.771 27.2444C183.565 25.6101 183.978 23.8169 183.978 22C183.978 20.1831 183.565 18.3899 182.771 16.7556C181.977 15.1213 180.823 13.6887 179.395 12.5656C181.165 11.1741 183.291 10.3088 185.529 10.0685C187.768 9.82824 190.029 10.2227 192.055 11.2068C194.08 12.1909 195.787 13.7249 196.982 15.6335C198.176 17.5422 198.81 19.7484 198.81 22Z" fill="#F79E1B"/>
<path d="M197.659 29.4072V29.0209H197.815V28.9422H197.418V29.0209H197.574V29.4072H197.659ZM198.429 29.4072V28.9414H198.307L198.168 29.2618L198.028 28.9414H197.906V29.4072H197.992V29.0558L198.123 29.3587H198.212L198.343 29.0551V29.4072H198.429Z" fill="#F79E1B"/>
<path d="M252.164 12C248.658 12 245.524 13.8174 245.524 17.1751C245.524 21.0258 251.082 21.2918 251.082 23.2262C251.082 24.0408 250.148 24.7699 248.554 24.7699C246.291 24.7699 244.6 23.7511 244.6 23.7511L243.877 27.1394C243.877 27.1394 245.825 28 248.411 28C252.244 28 255.261 26.0934 255.261 22.6782C255.261 18.6093 249.681 18.3512 249.681 16.5557C249.681 15.9177 250.447 15.2185 252.037 15.2185C253.83 15.2185 255.294 15.9595 255.294 15.9595L256.002 12.6869C256.002 12.6869 254.41 12 252.164 12ZM220.085 12.247L220 12.741C220 12.741 221.475 13.0109 222.804 13.5494C224.514 14.167 224.636 14.5265 224.924 15.643L228.064 27.7453H232.272L238.755 12.247H234.557L230.391 22.7844L228.691 13.8524C228.535 12.8301 227.745 12.247 226.779 12.247H220.085ZM240.444 12.247L237.15 27.7453H241.154L244.436 12.247H240.444ZM262.775 12.247C261.809 12.247 261.298 12.7639 260.922 13.6671L255.056 27.7453H259.255L260.068 25.3989H265.183L265.677 27.7453H269.382L266.15 12.247H262.775ZM263.321 16.4342L264.565 22.2499H261.231L263.321 16.4342Z" fill="#1434CB"/>
<defs>
<linearGradient id="paint0_linear_539_2653" x1="365.026" y1="28.8599" x2="372.249" y2="25.3582" gradientUnits="userSpaceOnUse">
<stop stop-color="#1FADC3"/>
<stop offset="0.7072" stop-color="#36B98F"/>
</linearGradient>
<linearGradient id="paint1_linear_539_2653" x1="367.562" y1="23.2352" x2="368.912" y2="23.0386" gradientUnits="userSpaceOnUse">
<stop stop-color="#123F06" stop-opacity="0.01"/>
<stop offset="1" stop-color="#123F06"/>
</linearGradient>
<radialGradient id="paint2_radial_539_2653" cx="0" cy="0" r="1" gradientUnits="userSpaceOnUse" gradientTransform="translate(366.423 22.7831) scale(3.48591 3.98387)">
<stop offset="0.4185" stop-color="#123F06" stop-opacity="0.01"/>
<stop offset="1" stop-color="#123F06"/>
</radialGradient>
<linearGradient id="paint3_linear_539_2653" x1="360.087" y1="20.928" x2="368.846" y2="23.9548" gradientUnits="userSpaceOnUse">
<stop stop-color="#9FDB57"/>
<stop offset="1" stop-color="#71CA5E"/>
</linearGradient>
<linearGradient id="paint4_linear_539_2653" x1="371.624" y1="28.8636" x2="378.847" y2="25.3618" gradientUnits="userSpaceOnUse">
<stop stop-color="#1FADC3"/>
<stop offset="0.7072" stop-color="#36B98F"/>
</linearGradient>
<linearGradient id="paint5_linear_539_2653" x1="374.224" y1="23.1766" x2="375.574" y2="22.9801" gradientUnits="userSpaceOnUse">
<stop stop-color="#123F06" stop-opacity="0.01"/>
<stop offset="1" stop-color="#123F06"/>
</linearGradient>
<radialGradient id="paint6_radial_539_2653" cx="0" cy="0" r="1" gradientUnits="userSpaceOnUse" gradientTransform="translate(373.02 22.7831) scale(3.48591 3.98387)">
<stop offset="0.4185" stop-color="#123F06" stop-opacity="0.01"/>
<stop offset="1" stop-color="#123F06"/>
</radialGradient>
<linearGradient id="paint7_linear_539_2653" x1="366.682" y1="20.9306" x2="375.441" y2="23.9574" gradientUnits="userSpaceOnUse">
<stop stop-color="#9FDB57"/>
<stop offset="1" stop-color="#71CA5E"/>
</linearGradient>
</defs>
</svg>
