<svg width="150" height="50" viewBox="0 0 150 50" fill="none" xmlns="http://www.w3.org/2000/svg">
<g clip-path="url(#clip0_451_5366)">
<path d="M137.668 0.0001625H11.9184C11.46 0.0001625 11.0071 0.0001625 10.5499 0.0026625C10.1672 0.0051625 9.78761 0.012425 9.40125 0.0185375C8.56189 0.0284148 7.72451 0.102258 6.89637 0.239425C6.06941 0.379578 5.26834 0.643807 4.52028 1.02318C3.77312 1.40575 3.09043 1.90287 2.49696 2.4965C1.90038 3.08846 1.40308 3.77268 1.02419 4.52286C0.64425 5.27155 0.380801 6.07384 0.242938 6.90201C0.103764 7.72914 0.028873 8.56581 0.0189375 9.40451C0.0073375 9.78776 0.0061125 10.1723 0 10.5556V39.4484C0.0061125 39.8365 0.0073375 40.2125 0.0189375 40.6008C0.028876 41.4394 0.103767 42.2761 0.242938 43.1032C0.38042 43.9318 0.643885 44.7346 1.02419 45.4835C1.40291 46.2313 1.90028 46.9127 2.49696 47.5014C3.08818 48.0977 3.77132 48.5951 4.52028 48.9748C5.26833 49.3552 6.06931 49.621 6.89637 49.7633C7.72465 49.8994 8.56195 49.9732 9.40125 49.9843C9.78761 49.9928 10.1672 49.9977 10.5499 49.9977C11.0071 50.0002 11.46 50.0002 11.9184 50.0002H137.668C138.118 50.0002 138.574 50.0002 139.023 49.9977C139.404 49.9977 139.795 49.9928 140.176 49.9843C141.014 49.9738 141.849 49.8999 142.676 49.7633C143.506 49.62 144.309 49.3542 145.061 48.9748C145.809 48.5949 146.492 48.0975 147.083 47.5014C147.678 46.9104 148.176 46.2295 148.56 45.4835C148.937 44.734 149.198 43.9313 149.333 43.1032C149.473 42.276 149.55 41.4395 149.565 40.6008C149.57 40.2125 149.57 39.8365 149.57 39.4484C149.58 38.9943 149.58 38.5427 149.58 38.0812V11.9203C149.58 11.4626 149.58 11.0085 149.57 10.5556C149.57 10.1723 149.57 9.78776 149.565 9.40446C149.55 8.56569 149.473 7.72921 149.333 6.90196C149.198 6.07426 148.937 5.27204 148.56 4.52281C147.788 3.01916 146.564 1.79519 145.061 1.02306C144.309 0.644622 143.505 0.380463 142.676 0.239312C141.849 0.101541 141.014 0.0276722 140.176 0.0183625C139.795 0.0122625 139.404 0.0049375 139.023 0.0025C138.574 0 138.118 0 137.668 0V0.0001625Z" fill="#A6A6A6"/>
<path d="M10.5561 48.9062C10.1752 48.9062 9.80358 48.9014 9.42572 48.8929C8.64295 48.8827 7.86201 48.8145 7.0893 48.689C6.36878 48.5649 5.6708 48.3341 5.01837 48.0041C4.37192 47.6769 3.78231 47.2478 3.27212 46.7334C2.75455 46.225 2.32364 45.6353 1.99648 44.9878C1.66572 44.336 1.43681 43.6374 1.31773 42.9163C1.18914 42.1414 1.11956 41.3579 1.10961 40.5725C1.10168 40.3089 1.09131 39.4311 1.09131 39.4311V10.5554C1.09131 10.5554 1.10236 9.69116 1.10967 9.43725C1.1192 8.6531 1.18837 7.87082 1.31658 7.09716C1.43588 6.37406 1.66497 5.67344 1.99591 5.01954C2.32186 4.37243 2.75038 3.78233 3.26483 3.2721C3.77871 2.75703 4.37021 2.32576 5.01776 1.99401C5.66869 1.66512 6.36535 1.43592 7.08441 1.31409C7.85966 1.1873 8.64331 1.11875 9.4288 1.10901L10.5567 1.09375H139.017L140.159 1.10963C140.937 1.11887 141.714 1.18681 142.482 1.31286C143.208 1.43622 143.912 1.66702 144.57 1.99768C145.868 2.66623 146.923 3.72395 147.589 5.02259C147.915 5.67197 148.14 6.36688 148.258 7.08374C148.388 7.86374 148.46 8.65217 148.475 9.44275C148.479 9.79675 148.479 10.177 148.479 10.5554C148.489 11.0242 148.489 11.4703 148.489 11.9202V38.081C148.489 38.5351 148.489 38.9783 148.479 39.425C148.479 39.8315 148.479 40.2039 148.474 40.5871C148.46 41.3636 148.388 42.138 148.261 42.904C148.144 43.6303 147.916 44.3344 147.586 44.9915C147.256 45.632 146.828 46.2166 146.316 46.7236C145.805 47.2409 145.215 47.6724 144.567 48.0018C143.91 48.3342 143.207 48.5659 142.482 48.689C141.709 48.8152 140.928 48.8834 140.145 48.8929C139.779 48.9014 139.396 48.9062 139.024 48.9062L137.669 48.9087L10.5561 48.9062Z" fill="#282828"/>
<path d="M30.9615 25.3744C30.9749 24.3311 31.2521 23.3081 31.7671 22.4007C32.2821 21.4932 33.0183 20.7308 33.9072 20.1844C33.3425 19.3779 32.5976 18.7142 31.7315 18.246C30.8655 17.7779 29.9022 17.518 28.9182 17.4873C26.8192 17.2669 24.7842 18.7433 23.7146 18.7433C22.6243 18.7433 20.9774 17.5091 19.204 17.5456C18.0569 17.5827 16.939 17.9162 15.9591 18.5138C14.9793 19.1114 14.1709 19.9526 13.6128 20.9555C11.1953 25.141 12.9986 31.2923 15.3143 34.6756C16.473 36.3322 17.8271 38.1828 19.5989 38.1172C21.3327 38.0453 21.9802 37.0116 24.0731 37.0116C26.1466 37.0116 26.7541 38.1172 28.5619 38.0755C30.4223 38.0453 31.5945 36.4114 32.7125 34.739C33.545 33.5586 34.1856 32.2539 34.6105 30.8734C33.5296 30.4162 32.6073 29.651 31.9583 28.6731C31.3094 27.6953 30.9627 26.548 30.9615 25.3744Z" fill="white"/>
<path d="M27.547 15.2617C28.5614 14.044 29.0611 12.4787 28.9401 10.8984C27.3903 11.0612 25.9588 11.8019 24.9306 12.9729C24.428 13.545 24.043 14.2106 23.7977 14.9315C23.5524 15.6525 23.4515 16.4147 23.501 17.1747C24.2762 17.1827 25.0431 17.0147 25.7439 16.6833C26.4447 16.3519 27.0612 15.8659 27.547 15.2617Z" fill="white"/>
<path d="M52.8784 33.9246H46.9617L45.5408 38.1202H43.0347L48.6389 22.5977H51.2427L56.8469 38.1202H54.2981L52.8784 33.9246ZM47.5745 31.9886H52.2645L49.9524 25.1795H49.8877L47.5745 31.9886Z" fill="white"/>
<path d="M68.9505 32.4672C68.9505 35.984 67.0681 38.2435 64.2276 38.2435C63.508 38.2812 62.7924 38.1154 62.1626 37.7653C61.5329 37.4151 61.0145 36.8947 60.6668 36.2635H60.613V41.869H58.29V26.808H60.5386V28.6903H60.5813C60.945 28.0622 61.4722 27.5445 62.1067 27.1922C62.7413 26.8399 63.4594 26.6662 64.1849 26.6896C67.0571 26.6896 68.9505 28.9601 68.9505 32.4672ZM66.5628 32.4672C66.5628 30.1759 65.3787 28.6696 63.572 28.6696C61.7971 28.6696 60.6033 30.2077 60.6033 32.4672C60.6033 34.7475 61.7971 36.2746 63.572 36.2746C65.3787 36.2746 66.5628 34.7792 66.5628 32.4672Z" fill="white"/>
<path d="M81.4065 32.4672C81.4065 35.984 79.5242 38.2435 76.6836 38.2435C75.9641 38.2812 75.2484 38.1154 74.6187 37.7653C73.989 37.4151 73.4706 36.8946 73.1228 36.2635H73.0691V41.869H70.7461V26.808H72.9946V28.6903H73.0373C73.401 28.0622 73.9282 27.5445 74.5627 27.1922C75.1973 26.8399 75.9155 26.6662 76.6409 26.6896C79.5132 26.6896 81.4065 28.9601 81.4065 32.4672ZM79.0188 32.4672C79.0188 30.1759 77.8348 28.6696 76.0281 28.6696C74.2532 28.6696 73.0594 30.2076 73.0594 32.4672C73.0594 34.7474 74.2532 36.2746 76.0281 36.2746C77.8348 36.2746 79.0189 34.7792 79.0189 32.4672H79.0188Z" fill="white"/>
<path d="M89.6387 33.7962C89.8108 35.3355 91.3062 36.3462 93.3497 36.3462C95.3077 36.3462 96.7164 35.3355 96.7164 33.9475C96.7164 32.7427 95.8667 32.0213 93.855 31.5269L91.8433 31.0422C88.993 30.3538 87.6697 29.0208 87.6697 26.8577C87.6697 24.1794 90.0037 22.3398 93.3179 22.3398C96.5979 22.3398 98.8465 24.1794 98.9222 26.8577H96.5772C96.4368 25.3086 95.1563 24.3735 93.2849 24.3735C91.4136 24.3735 90.1331 25.3196 90.1331 26.6965C90.1331 27.794 90.9509 28.4397 92.9517 28.934L94.6619 29.354C97.8467 30.1071 99.1699 31.3865 99.1699 33.6569C99.1699 36.561 96.8567 38.3798 93.1775 38.3798C89.7351 38.3798 87.4109 36.6037 87.2607 33.7961L89.6387 33.7962Z" fill="white"/>
<path d="M104.184 24.125V26.8032H106.336V28.6428H104.184V34.8818C104.184 35.8511 104.615 36.3027 105.561 36.3027C105.816 36.2983 106.071 36.2803 106.325 36.249V38.0776C105.899 38.1571 105.467 38.1931 105.034 38.185C102.743 38.185 101.85 37.3244 101.85 35.1296V28.6428H100.204V26.8032H101.85V24.125H104.184Z" fill="white"/>
<path d="M107.582 32.4624C107.582 28.9016 109.679 26.6641 112.949 26.6641C116.231 26.6641 118.318 28.9016 118.318 32.4624C118.318 36.033 116.242 38.2607 112.949 38.2607C109.658 38.2607 107.582 36.033 107.582 32.4624ZM115.951 32.4624C115.951 30.0198 114.832 28.5781 112.949 28.5781C111.067 28.5781 109.949 30.0308 109.949 32.4624C109.949 34.9148 111.067 36.3455 112.949 36.3455C114.832 36.3455 115.951 34.9148 115.951 32.4624H115.951Z" fill="white"/>
<path d="M120.233 26.8079H122.449V28.7341H122.503C122.653 28.1325 123.005 27.6009 123.501 27.2285C123.997 26.8562 124.605 26.6658 125.225 26.6895C125.493 26.6885 125.76 26.7176 126.021 26.7761V28.949C125.683 28.8457 125.33 28.7983 124.977 28.8086C124.64 28.7949 124.303 28.8544 123.991 28.983C123.679 29.1116 123.398 29.3063 123.168 29.5537C122.938 29.801 122.764 30.0952 122.659 30.4161C122.553 30.7369 122.518 31.0768 122.556 31.4124V38.125H120.233L120.233 26.8079Z" fill="white"/>
<path d="M136.731 34.7964C136.419 36.8508 134.418 38.2607 131.858 38.2607C128.566 38.2607 126.522 36.0549 126.522 32.5161C126.522 28.9663 128.577 26.6641 131.76 26.6641C134.892 26.6641 136.861 28.8149 136.861 32.2463V33.0422H128.867V33.1826C128.831 33.5991 128.883 34.0187 129.02 34.4135C129.158 34.8083 129.378 35.1693 129.666 35.4725C129.954 35.7756 130.303 36.0141 130.691 36.172C131.078 36.3299 131.494 36.4036 131.912 36.3882C132.461 36.4396 133.012 36.3125 133.483 36.0257C133.953 35.7389 134.319 35.3077 134.525 34.7964L136.731 34.7964ZM128.878 31.4187H134.536C134.557 31.0442 134.5 30.6694 134.37 30.3179C134.239 29.9664 134.037 29.6457 133.776 29.376C133.515 29.1063 133.202 28.8934 132.855 28.7506C132.508 28.6079 132.135 28.5383 131.76 28.5464C131.382 28.5441 131.007 28.6168 130.657 28.7602C130.307 28.9037 129.989 29.115 129.721 29.382C129.453 29.6491 129.241 29.9665 129.096 30.3161C128.951 30.6657 128.877 31.0404 128.878 31.4187V31.4187Z" fill="white"/>
<path d="M46.1436 15.8701H47.1201C47.6117 15.8701 47.9925 15.9743 48.2627 16.1826C48.5329 16.3877 48.668 16.6693 48.668 17.0273V17.0371C48.668 17.2682 48.6045 17.4733 48.4775 17.6523C48.3506 17.8281 48.1732 17.9648 47.9453 18.0625C47.7207 18.1602 47.4554 18.209 47.1494 18.209C46.8532 18.209 46.5911 18.1667 46.3633 18.082C46.1354 17.9941 45.9531 17.8704 45.8164 17.7109C45.6797 17.5482 45.5999 17.3561 45.5771 17.1348L45.5723 17.1055H44.5029V17.1543C44.5322 17.5579 44.6608 17.9111 44.8887 18.2139C45.1165 18.5166 45.4242 18.7526 45.8115 18.9219C46.1989 19.0879 46.6449 19.1709 47.1494 19.1709C47.6475 19.1709 48.0951 19.0798 48.4922 18.8975C48.8893 18.7152 49.2035 18.4678 49.4346 18.1553C49.6689 17.8428 49.7861 17.488 49.7861 17.0908V17.0811C49.7861 16.5863 49.638 16.1891 49.3418 15.8896C49.0488 15.5902 48.6745 15.4176 48.2188 15.3721V15.2891C48.6094 15.1979 48.9268 15.0059 49.1709 14.7129C49.415 14.4167 49.5371 14.0749 49.5371 13.6875V13.6777C49.5371 13.3034 49.4362 12.9746 49.2344 12.6914C49.0326 12.4082 48.7542 12.1868 48.3994 12.0273C48.0479 11.8646 47.641 11.7832 47.1787 11.7832C46.6969 11.7832 46.2754 11.863 45.9141 12.0225C45.556 12.1787 45.2712 12.4049 45.0596 12.7012C44.848 12.9941 44.7259 13.3424 44.6934 13.7461L44.6836 13.8242H45.7383V13.79C45.7643 13.5687 45.8359 13.3815 45.9531 13.2285C46.0736 13.0723 46.2347 12.9535 46.4365 12.8721C46.6383 12.7874 46.8727 12.7451 47.1396 12.7451C47.4163 12.7451 47.6523 12.7891 47.8477 12.877C48.043 12.9616 48.1927 13.082 48.2969 13.2383C48.401 13.3913 48.4531 13.5752 48.4531 13.79V13.7998C48.4531 14.1383 48.3294 14.415 48.082 14.6299C47.8346 14.8415 47.5042 14.9473 47.0908 14.9473H46.1436V15.8701ZM52.5938 19.0879C52.8281 19.0879 53.0446 19.0553 53.2432 18.9902C53.4417 18.9251 53.6191 18.8307 53.7754 18.707C53.9316 18.5801 54.0618 18.4271 54.166 18.248H54.2441V19H55.2988V15.3721C55.2988 15.001 55.2174 14.6836 55.0547 14.4199C54.8952 14.153 54.6592 13.9495 54.3467 13.8096C54.0374 13.6663 53.6598 13.5947 53.2139 13.5947C52.8135 13.5947 52.457 13.6549 52.1445 13.7754C51.8353 13.8958 51.5846 14.0651 51.3926 14.2832C51.2038 14.498 51.0882 14.752 51.0459 15.0449L51.041 15.0791H52.0615L52.0713 15.0645C52.1331 14.8757 52.2568 14.7292 52.4424 14.625C52.6312 14.5208 52.8737 14.4688 53.1699 14.4688C53.5247 14.4688 53.7917 14.5469 53.9707 14.7031C54.153 14.8561 54.2441 15.0791 54.2441 15.3721V17.042C54.2441 17.2699 54.1855 17.4749 54.0684 17.6572C53.9512 17.8363 53.7884 17.9795 53.5801 18.0869C53.375 18.1911 53.1406 18.2432 52.877 18.2432C52.5938 18.2432 52.3594 18.1748 52.1738 18.0381C51.9883 17.8981 51.8955 17.7077 51.8955 17.4668V17.457C51.8955 17.2194 51.9818 17.0355 52.1543 16.9053C52.3268 16.7718 52.5954 16.6937 52.96 16.6709L54.7715 16.5537V15.8066L52.8135 15.9238C52.182 15.9629 51.6937 16.1175 51.3486 16.3877C51.0068 16.6546 50.8359 17.0257 50.8359 17.501V17.5107C50.8359 17.8298 50.9124 18.1081 51.0654 18.3457C51.2184 18.5833 51.4268 18.7673 51.6904 18.8975C51.9574 19.0244 52.2585 19.0879 52.5938 19.0879ZM56.8857 19H59.3125C59.8952 19 60.3509 18.8617 60.6797 18.585C61.0085 18.305 61.1729 17.9388 61.1729 17.4863V17.4766C61.1729 17.265 61.1257 17.0745 61.0312 16.9053C60.9401 16.736 60.8099 16.5977 60.6406 16.4902C60.4714 16.3796 60.2712 16.3096 60.04 16.2803V16.2021C60.3005 16.1501 60.5153 16.0166 60.6846 15.8018C60.8538 15.5837 60.9385 15.3395 60.9385 15.0693V15.0596C60.9385 14.6462 60.7936 14.3158 60.5039 14.0684C60.2142 13.821 59.8089 13.6973 59.2881 13.6973H56.8857V19ZM57.9404 18.2188V16.6807H59.0391C59.3906 16.6807 59.6527 16.7425 59.8252 16.8662C60.001 16.9899 60.0889 17.1803 60.0889 17.4375V17.4473C60.0889 17.6914 60.0124 17.8818 59.8594 18.0186C59.7064 18.152 59.4769 18.2188 59.1709 18.2188H57.9404ZM57.9404 15.9141V14.4785H59.0684C59.3516 14.4785 59.5583 14.5436 59.6885 14.6738C59.8219 14.804 59.8887 14.9749 59.8887 15.1865V15.1963C59.8887 15.4274 59.8122 15.6048 59.6592 15.7285C59.5062 15.8522 59.2718 15.9141 58.9561 15.9141H57.9404ZM64.0098 19.0879C64.2441 19.0879 64.4606 19.0553 64.6592 18.9902C64.8577 18.9251 65.0352 18.8307 65.1914 18.707C65.3477 18.5801 65.4779 18.4271 65.582 18.248H65.6602V19H66.7148V15.3721C66.7148 15.001 66.6335 14.6836 66.4707 14.4199C66.3112 14.153 66.0752 13.9495 65.7627 13.8096C65.4535 13.6663 65.0758 13.5947 64.6299 13.5947C64.2295 13.5947 63.873 13.6549 63.5605 13.7754C63.2513 13.8958 63.0007 14.0651 62.8086 14.2832C62.6198 14.498 62.5042 14.752 62.4619 15.0449L62.457 15.0791H63.4775L63.4873 15.0645C63.5492 14.8757 63.6729 14.7292 63.8584 14.625C64.0472 14.5208 64.2897 14.4688 64.5859 14.4688C64.9408 14.4688 65.2077 14.5469 65.3867 14.7031C65.569 14.8561 65.6602 15.0791 65.6602 15.3721V17.042C65.6602 17.2699 65.6016 17.4749 65.4844 17.6572C65.3672 17.8363 65.2044 17.9795 64.9961 18.0869C64.791 18.1911 64.5566 18.2432 64.293 18.2432C64.0098 18.2432 63.7754 18.1748 63.5898 18.0381C63.4043 17.8981 63.3115 17.7077 63.3115 17.4668V17.457C63.3115 17.2194 63.3978 17.0355 63.5703 16.9053C63.7428 16.7718 64.0114 16.6937 64.376 16.6709L66.1875 16.5537V15.8066L64.2295 15.9238C63.598 15.9629 63.1097 16.1175 62.7646 16.3877C62.4229 16.6546 62.252 17.0257 62.252 17.501V17.5107C62.252 17.8298 62.3285 18.1081 62.4814 18.3457C62.6344 18.5833 62.8428 18.7673 63.1064 18.8975C63.3734 19.0244 63.6745 19.0879 64.0098 19.0879ZM71.7637 19H72.8281V13.6973H71.7637V15.8359H69.3662V13.6973H68.3018V19H69.3662V16.6758H71.7637V19ZM78.4092 13.6973H74.0098V14.5371H75.6797V19H76.7393V14.5371H78.4092V13.6973ZM80.9727 19.0879C81.207 19.0879 81.4235 19.0553 81.6221 18.9902C81.8206 18.9251 81.998 18.8307 82.1543 18.707C82.3105 18.5801 82.4408 18.4271 82.5449 18.248H82.623V19H83.6777V15.3721C83.6777 15.001 83.5964 14.6836 83.4336 14.4199C83.2741 14.153 83.0381 13.9495 82.7256 13.8096C82.4163 13.6663 82.0387 13.5947 81.5928 13.5947C81.1924 13.5947 80.8359 13.6549 80.5234 13.7754C80.2142 13.8958 79.9635 14.0651 79.7715 14.2832C79.5827 14.498 79.4671 14.752 79.4248 15.0449L79.4199 15.0791H80.4404L80.4502 15.0645C80.512 14.8757 80.6357 14.7292 80.8213 14.625C81.0101 14.5208 81.2526 14.4688 81.5488 14.4688C81.9036 14.4688 82.1706 14.5469 82.3496 14.7031C82.5319 14.8561 82.623 15.0791 82.623 15.3721V17.042C82.623 17.2699 82.5645 17.4749 82.4473 17.6572C82.3301 17.8363 82.1673 17.9795 81.959 18.0869C81.7539 18.1911 81.5195 18.2432 81.2559 18.2432C80.9727 18.2432 80.7383 18.1748 80.5527 18.0381C80.3672 17.8981 80.2744 17.7077 80.2744 17.4668V17.457C80.2744 17.2194 80.3607 17.0355 80.5332 16.9053C80.7057 16.7718 80.9743 16.6937 81.3389 16.6709L83.1504 16.5537V15.8066L81.1924 15.9238C80.5609 15.9629 80.0726 16.1175 79.7275 16.3877C79.3857 16.6546 79.2148 17.0257 79.2148 17.501V17.5107C79.2148 17.8298 79.2913 18.1081 79.4443 18.3457C79.5973 18.5833 79.8057 18.7673 80.0693 18.8975C80.3363 19.0244 80.6374 19.0879 80.9727 19.0879ZM85.9727 19L87.7061 16.6416H88.0186V19H89.0439V16.6416H89.3564L91.0898 19H92.3691L90.1963 16.1631L92.2568 13.6973H91.041L89.3516 15.8799H89.0439V13.6973H88.0186V15.8799H87.7109L86.0215 13.6973H84.791L86.8662 16.1777L84.708 19H85.9727ZM93.4189 19H94.4736L97.125 14.8594L96.4072 15.2646H96.959V19H98.0137V13.6973H96.959L94.3076 17.8184L95.0254 17.418H94.4736V13.6973H93.4189V19ZM103.595 13.6973H99.1953V14.5371H100.865V19H101.925V14.5371H103.595V13.6973ZM104.776 19H105.831L108.482 14.8594L107.765 15.2646H108.316V19H109.371V13.6973H108.316L105.665 17.8184L106.383 17.418H105.831V13.6973H104.776V19ZM115.626 19.1025C116.065 19.1025 116.448 19.0326 116.773 18.8926C117.099 18.7526 117.351 18.5589 117.53 18.3115C117.709 18.0609 117.799 17.7712 117.799 17.4424V17.4326C117.799 17.234 117.758 17.0566 117.677 16.9004C117.599 16.7409 117.478 16.6074 117.315 16.5C117.156 16.3926 116.956 16.3145 116.715 16.2656V16.1826C116.988 16.1175 117.206 15.9824 117.369 15.7773C117.535 15.569 117.618 15.3281 117.618 15.0547V15.0449C117.618 14.752 117.54 14.4964 117.384 14.2783C117.228 14.0602 117.003 13.891 116.71 13.7705C116.417 13.6501 116.065 13.5898 115.655 13.5898C115.252 13.5898 114.9 13.6517 114.601 13.7754C114.304 13.8991 114.068 14.0716 113.893 14.293C113.717 14.5143 113.608 14.7764 113.565 15.0791L113.561 15.1133H114.576L114.581 15.0889C114.623 14.887 114.737 14.7275 114.923 14.6104C115.112 14.4899 115.349 14.4297 115.636 14.4297C115.951 14.4297 116.188 14.4997 116.344 14.6396C116.503 14.7764 116.583 14.9473 116.583 15.1523V15.1621C116.583 15.4062 116.502 15.5918 116.339 15.7188C116.176 15.8457 115.934 15.9092 115.611 15.9092H114.825V16.6807H115.616C115.987 16.6807 116.269 16.7441 116.461 16.8711C116.653 16.9948 116.749 17.1852 116.749 17.4424V17.4521C116.749 17.6898 116.65 17.8851 116.451 18.0381C116.253 18.1878 115.974 18.2627 115.616 18.2627C115.317 18.2627 115.066 18.2041 114.864 18.0869C114.662 17.9665 114.532 17.8021 114.474 17.5938L114.464 17.5547H113.419L113.424 17.5986C113.46 17.9176 113.578 18.1895 113.78 18.4141C113.982 18.6354 114.243 18.8063 114.562 18.9268C114.881 19.0439 115.235 19.1025 115.626 19.1025Z" fill="white"/>
</g>
<defs>
<clipPath id="clip0_451_5366">
<rect width="149.58" height="50" fill="white"/>
</clipPath>
</defs>
</svg>
