<svg fill="none" xmlns="http://www.w3.org/2000/svg" viewBox="0 0 150 50"><g clip-path="url(#clip0_451_5366)"><path d="M137.67 0H10.55L9.4.02c-.84 0-1.68.08-2.5.22A8.33 8.33 0 0 0 2.5 2.5c-.6.59-1.1 1.27-1.48 2.02A8.25 8.25 0 0 0 .24 6.9C.1 7.73.03 8.57.02 9.4L0 10.56v28.89c0 .39 0 .76.02 1.15 0 .84.08 1.68.22 2.5a8.23 8.23 0 0 0 2.26 4.4 8.37 8.37 0 0 0 4.4 2.26c.82.14 1.66.21 2.5.22a52.01 52.01 0 0 0 2.52.02h127.1c.38 0 .77 0 1.16-.02.83 0 1.67-.08 2.5-.22a7.86 7.86 0 0 0 4.4-2.26 8.01 8.01 0 0 0 2.25-4.4c.14-.82.22-1.66.23-2.5l.01-1.15.01-1.37V11.92l-.01-1.36V9.4a16.8 16.8 0 0 0-.24-2.5 8.09 8.09 0 0 0-6.66-6.66 16.3 16.3 0 0 0-2.5-.22L139.03 0h-1.35Z" fill="#A6A6A6"/><path d="M10.56 48.9H9.43c-.79-.02-1.57-.09-2.34-.21A7.35 7.35 0 0 1 5.02 48 6.76 6.76 0 0 1 2 45a7.15 7.15 0 0 1-.68-2.07c-.13-.78-.2-1.56-.21-2.35l-.02-1.14V10.56l.02-1.12c0-.79.08-1.57.2-2.34a7.2 7.2 0 0 1 1.95-3.83 6.96 6.96 0 0 1 3.82-1.96c.78-.12 1.56-.2 2.35-.2l1.13-.02h128.46l1.14.02c.78 0 1.55.08 2.32.2a6.99 6.99 0 0 1 5.78 5.77c.13.78.2 1.57.22 2.36V40.6c-.02.77-.1 1.55-.22 2.31a6.85 6.85 0 0 1-3.7 5.1c-.65.33-1.35.57-2.08.69-.77.13-1.55.2-2.33.2l-1.13.02H10.56Z" fill="#282828"/><path d="M30.96 25.37a6.19 6.19 0 0 1 2.95-5.19 6.33 6.33 0 0 0-5-2.7c-2.1-.21-4.13 1.26-5.2 1.26-1.09 0-2.73-1.23-4.5-1.2a6.64 6.64 0 0 0-5.6 3.42c-2.41 4.18-.61 10.33 1.7 13.72 1.16 1.65 2.52 3.5 4.29 3.44 1.73-.07 2.38-1.1 4.47-1.1 2.08 0 2.68 1.1 4.5 1.06 1.85-.03 3.02-1.67 4.14-3.34a13.7 13.7 0 0 0 1.9-3.87 5.98 5.98 0 0 1-3.65-5.5Z" fill="#fff"/><path d="M27.55 15.26a6.1 6.1 0 0 0 1.39-4.36 6.2 6.2 0 0 0-4 2.07 5.8 5.8 0 0 0-1.44 4.2 5.12 5.12 0 0 0 4.05-1.9Z" fill="#fff"/><path d="M52.88 33.92h-5.92l-1.42 4.2h-2.5l5.6-15.52h2.6l5.6 15.52H54.3l-1.42-4.2ZM47.58 32h4.68l-2.3-6.81h-.07l-2.32 6.8Z" fill="#fff"/><path d="M68.95 32.47c0 3.51-1.88 5.77-4.72 5.77a3.84 3.84 0 0 1-3.56-1.98h-.06v5.6H58.3V26.82h2.25v1.88h.04a4.01 4.01 0 0 1 3.6-2c2.88 0 4.77 2.27 4.77 5.78Zm-2.39 0c0-2.3-1.18-3.8-2.99-3.8-1.77 0-2.97 1.54-2.97 3.8 0 2.28 1.2 3.8 2.97 3.8 1.8 0 3-1.5 3-3.8Z" fill="#fff"/><path d="M81.4 32.47c0 3.51-1.88 5.77-4.72 5.77a3.84 3.84 0 0 1-3.56-1.98h-.05v5.6h-2.32V26.82h2.24v1.88h.05a4.01 4.01 0 0 1 3.6-2c2.87 0 4.77 2.27 4.77 5.78Zm-2.38 0c0-2.3-1.19-3.8-3-3.8-1.77 0-2.96 1.54-2.96 3.8 0 2.28 1.2 3.8 2.97 3.8 1.8 0 2.99-1.5 2.99-3.8Z" fill="#fff"/><path d="M89.64 33.8c.17 1.54 1.67 2.55 3.71 2.55 1.96 0 3.37-1.01 3.37-2.4 0-1.2-.85-1.93-2.86-2.42l-2.02-.49c-2.85-.69-4.17-2.02-4.17-4.18 0-2.68 2.33-4.52 5.65-4.52 3.28 0 5.53 1.84 5.6 4.52h-2.34c-.14-1.55-1.42-2.49-3.3-2.49-1.87 0-3.15.95-3.15 2.33 0 1.1.82 1.74 2.82 2.23l1.71.42c3.19.76 4.51 2.04 4.51 4.3 0 2.91-2.31 4.73-6 4.73-3.43 0-5.76-1.78-5.9-4.58h2.37Z" fill="#fff"/><path d="M104.18 24.13v2.67h2.16v1.84h-2.16v6.24c0 .97.43 1.42 1.38 1.42.26 0 .51-.02.77-.05v1.83c-.43.08-.86.11-1.3.1-2.29 0-3.18-.86-3.18-3.05v-6.49h-1.65V26.8h1.65v-2.68h2.33Z" fill="#fff"/><path d="M107.58 32.46c0-3.56 2.1-5.8 5.37-5.8 3.28 0 5.37 2.24 5.37 5.8 0 3.57-2.08 5.8-5.37 5.8-3.3 0-5.37-2.23-5.37-5.8Zm8.37 0c0-2.44-1.12-3.88-3-3.88s-3 1.45-3 3.88c0 2.45 1.12 3.89 3 3.89s3-1.44 3-3.89Z" fill="#fff"/><path d="M120.23 26.8h2.22v1.93h.05a2.7 2.7 0 0 1 2.72-2.04c.27 0 .54.03.8.09v2.17c-.34-.1-.69-.15-1.04-.14a2.34 2.34 0 0 0-2.42 2.6v6.71h-2.33V26.81Z" fill="#fff"/><path d="M136.73 34.8c-.31 2.05-2.31 3.46-4.87 3.46-3.3 0-5.34-2.2-5.34-5.74 0-3.55 2.06-5.86 5.24-5.86 3.13 0 5.1 2.15 5.1 5.59v.8h-8v.13a2.97 2.97 0 0 0 1.83 3c.39.15.8.22 1.22.2a2.56 2.56 0 0 0 2.62-1.58h2.2Zm-7.85-3.38h5.66a2.73 2.73 0 0 0-2.78-2.87 2.86 2.86 0 0 0-2.88 2.87Z" fill="#fff"/><path d="M46.14 15.87h.98c.5 0 .87.1 1.14.31.27.2.4.49.4.85 0 .24-.06.44-.18.62-.13.18-.3.31-.53.41-.23.1-.5.15-.8.15-.3 0-.56-.04-.79-.13a1.34 1.34 0 0 1-.54-.37 1.04 1.04 0 0 1-.24-.58v-.02H44.5v.04c.03.4.16.76.39 1.06.23.3.53.54.92.71.39.17.83.25 1.34.25.5 0 .95-.09 1.34-.27.4-.18.71-.43.94-.74.24-.32.36-.67.36-1.07 0-.5-.15-.9-.45-1.2-.3-.3-.67-.47-1.12-.52v-.08c.39-.1.7-.28.95-.58.24-.3.37-.64.37-1.02v-.01c0-.38-.1-.7-.3-.99-.2-.28-.49-.5-.84-.66a2.88 2.88 0 0 0-1.22-.25c-.48 0-.9.08-1.27.24-.35.16-.64.38-.85.68-.21.3-.33.64-.37 1.05v.07h1.05v-.03c.02-.22.1-.4.21-.56.12-.16.28-.28.49-.36.2-.08.43-.12.7-.12.28 0 .51.04.7.13.2.08.35.2.46.36.1.15.15.34.15.55v.01c0 .34-.12.61-.37.83-.25.21-.58.32-.99.32h-.95v.92Zm6.45 3.22c.24 0 .45-.03.65-.1.2-.06.38-.16.54-.28.15-.13.28-.28.39-.46h.07V19h1.06v-3.63c0-.37-.08-.69-.25-.95-.15-.27-.4-.47-.7-.61-.31-.14-.69-.22-1.14-.22-.4 0-.75.06-1.07.19-.3.12-.56.29-.75.5-.19.22-.3.47-.34.76v.04h1.01l.01-.02a.77.77 0 0 1 .37-.44c.2-.1.43-.15.73-.15.35 0 .62.08.8.23.18.16.27.38.27.67v1.67c0 .23-.05.43-.17.62-.12.18-.28.32-.49.43-.2.1-.44.15-.7.15-.29 0-.52-.07-.7-.2a.68.68 0 0 1-.28-.57v-.01c0-.24.08-.42.25-.55.18-.14.45-.22.81-.24l1.81-.12v-.74l-1.96.11a2.6 2.6 0 0 0-1.46.47c-.34.26-.51.64-.51 1.11v.01a1.5 1.5 0 0 0 .85 1.39c.27.12.57.19.9.19Zm4.3-.09h2.42c.59 0 1.04-.14 1.37-.41.33-.29.5-.65.5-1.1v-.01a1.15 1.15 0 0 0-.54-.99 1.4 1.4 0 0 0-.6-.21v-.08c.26-.05.48-.18.64-.4.17-.22.26-.46.26-.73v-.01c0-.41-.15-.74-.44-1-.29-.24-.7-.36-1.21-.36h-2.4V19Zm1.05-.78v-1.54h1.1c.35 0 .61.06.79.19.17.12.26.31.26.57 0 .25-.08.44-.23.58-.15.13-.38.2-.69.2h-1.23Zm0-2.3v-1.44h1.13c.28 0 .49.06.62.2.13.12.2.3.2.5v.02c0 .23-.08.4-.23.53-.15.12-.39.18-.7.18h-1.02Zm6.07 3.17c.23 0 .45-.03.65-.1.2-.06.38-.16.53-.28.16-.13.29-.28.4-.46h.07V19h1.05v-3.63c0-.37-.08-.69-.24-.95-.16-.27-.4-.47-.7-.61-.32-.14-.7-.22-1.14-.22-.4 0-.76.06-1.07.19-.3.12-.56.29-.75.5-.19.22-.3.47-.35.76v.04h1.02v-.02a.77.77 0 0 1 .38-.44c.19-.1.43-.15.73-.15.35 0 .62.08.8.23.18.16.27.38.27.67v1.67c0 .23-.06.43-.18.62-.11.18-.28.32-.48.43-.2.1-.44.15-.7.15-.29 0-.52-.07-.71-.2a.68.68 0 0 1-.28-.57v-.01c0-.24.09-.42.26-.55.17-.14.44-.22.8-.24l1.82-.12v-.74l-1.96.11a2.6 2.6 0 0 0-1.47.47c-.34.26-.5.64-.5 1.11v.01a1.5 1.5 0 0 0 .85 1.39c.26.12.56.19.9.19Zm7.75-.09h1.07v-5.3h-1.07v2.14h-2.4V13.7H68.3V19h1.07v-2.32h2.4V19Zm6.65-5.3H74v.84h1.67V19h1.06v-4.46h1.67v-.84Zm2.56 5.39c.24 0 .45-.03.65-.1.2-.06.38-.16.53-.28.16-.13.3-.28.4-.46h.07V19h1.06v-3.63c0-.37-.08-.69-.25-.95-.16-.27-.4-.47-.7-.61-.31-.14-.7-.22-1.14-.22-.4 0-.75.06-1.07.19-.3.12-.56.29-.75.5-.19.22-.3.47-.35.76v.04h1.02l.01-.02a.77.77 0 0 1 .37-.44c.19-.1.43-.15.73-.15.35 0 .62.08.8.23.18.16.27.38.27.67v1.67c0 .23-.06.43-.17.62-.12.18-.28.32-.5.43-.2.1-.43.15-.7.15-.28 0-.51-.07-.7-.2a.68.68 0 0 1-.28-.57v-.01c0-.24.1-.42.26-.55.18-.14.44-.22.8-.24l1.82-.12v-.74l-1.96.11a2.6 2.6 0 0 0-1.46.47c-.34.26-.52.64-.52 1.11v.01a1.5 1.5 0 0 0 .86 1.39c.27.12.57.19.9.19Zm5-.09 1.74-2.36h.3V19h1.03v-2.36h.32L91.09 19h1.28l-2.17-2.84 2.06-2.46h-1.22l-1.69 2.18h-.3V13.7h-1.03v2.18h-.3l-1.7-2.18H84.8l2.08 2.48L84.7 19h1.26Zm7.45 0h1.05l2.66-4.14-.72.4h.55V19H98v-5.3h-1.05l-2.65 4.12.72-.4h-.56V13.7h-1.05V19Zm10.17-5.3h-4.4v.84h1.67V19h1.06v-4.46h1.67v-.84Zm1.19 5.3h1.05l2.65-4.14-.72.4h.56V19h1.05v-5.3h-1.05l-2.65 4.12.71-.4h-.55V13.7h-1.05V19Zm10.85.1c.44 0 .82-.07 1.14-.2.33-.15.58-.34.76-.59.18-.25.27-.54.27-.87 0-.2-.04-.38-.12-.54a1 1 0 0 0-.37-.4c-.15-.1-.35-.19-.6-.23v-.09a1.15 1.15 0 0 0 .9-1.13c0-.3-.07-.55-.23-.77a1.5 1.5 0 0 0-.67-.5c-.3-.13-.64-.19-1.05-.19-.4 0-.76.06-1.06.19a1.6 1.6 0 0 0-1.04 1.3v.03h1.02v-.02c.04-.2.16-.36.34-.48.2-.12.43-.18.72-.18.31 0 .55.07.7.21.16.14.24.3.24.51v.01c0 .25-.08.43-.24.56-.16.13-.4.19-.73.19h-.78v.77h.79c.37 0 .65.06.84.2.2.11.29.3.29.56v.01a.7.7 0 0 1-.3.59c-.2.15-.48.22-.83.22-.3 0-.55-.06-.76-.17a.82.82 0 0 1-.39-.5v-.04h-1.05v.05c.04.32.16.59.36.81.2.23.46.4.78.52.32.11.67.17 1.07.17Z" fill="#fff"/></g><defs><clipPath id="clip0_451_5366"><path fill="#fff" d="M0 0h149.58v50H0z"/></clipPath></defs></svg>