<svg fill="none" xmlns="http://www.w3.org/2000/svg" viewBox="0 0 169 50"><g clip-path="url(#clip0_451_5337)"><path d="M162.5 50H6.25A6.27 6.27 0 0 1 0 43.75V6.25A6.27 6.27 0 0 1 6.25 0H162.5a6.27 6.27 0 0 1 6.25 6.25v37.5A6.27 6.27 0 0 1 162.5 50Z" fill="#282828"/><path d="M162.5 1c2.9 0 5.25 2.35 5.25 5.25v37.5c0 2.9-2.35 5.25-5.25 5.25H6.25A5.25 5.25 0 0 1 1 43.75V6.25C1 3.35 3.35 1 6.25 1H162.5Zm0-1H6.25A6.27 6.27 0 0 0 0 6.25v37.5A6.27 6.27 0 0 0 6.25 50H162.5a6.27 6.27 0 0 0 6.25-6.25V6.25A6.27 6.27 0 0 0 162.5 0Z" fill="#A6A6A6"/><path d="M85.17 27.19a5.24 5.24 0 0 0-5.33 5.31c0 3.06 2.4 5.31 5.33 5.31a5.25 5.25 0 0 0 5.34-5.31c0-3.07-2.4-5.31-5.34-5.31Zm0 8.54c-1.6 0-3-1.33-3-3.23 0-1.91 1.4-3.23 3-3.23 1.62 0 3 1.32 3 3.23 0 1.9-1.4 3.23-3 3.23Zm-11.65-8.54a5.24 5.24 0 0 0-5.33 5.31c0 3.06 2.4 5.31 5.33 5.31a5.25 5.25 0 0 0 5.34-5.31c0-3.07-2.4-5.31-5.34-5.31Zm0 8.54c-1.6 0-3-1.33-3-3.23 0-1.91 1.4-3.23 3-3.23 1.62 0 3 1.32 3 3.23 0 1.9-1.38 3.23-3 3.23Zm-13.85-6.9v2.25h5.4a4.75 4.75 0 0 1-1.22 2.83 5.51 5.51 0 0 1-4.16 1.65 5.92 5.92 0 0 1-5.93-6 5.92 5.92 0 0 1 9.99-4.38l1.59-1.6a7.87 7.87 0 0 0-5.67-2.27 8.37 8.37 0 0 0-8.37 8.27 8.38 8.38 0 0 0 8.37 8.26c2.47 0 4.32-.8 5.77-2.32 1.48-1.48 1.95-3.58 1.95-5.27 0-.52-.04-1.01-.13-1.41h-7.59v-.02Zm56.64 1.75c-.44-1.2-1.78-3.4-4.55-3.4-2.73 0-5.01 2.16-5.01 5.32a5.2 5.2 0 0 0 5.28 5.31 5.27 5.27 0 0 0 4.42-2.35l-1.81-1.21a3.02 3.02 0 0 1-2.61 1.48 2.7 2.7 0 0 1-2.58-1.62l7.11-2.93-.25-.6Zm-7.25 1.77a2.91 2.91 0 0 1 2.78-3.1c.92 0 1.71.46 1.97 1.13l-4.75 1.97Zm-5.77 5.15h2.33V21.87h-2.33V37.5Zm-3.83-9.13h-.09a3.67 3.67 0 0 0-2.8-1.18 5.29 5.29 0 0 0-5.1 5.33c0 2.98 2.44 5.3 5.1 5.3 1.27 0 2.28-.56 2.8-1.2h.08v.76c0 2.03-1.09 3.12-2.84 3.12a2.94 2.94 0 0 1-2.67-1.89l-2.04.85a5.07 5.07 0 0 0 4.71 3.14c2.74 0 5.05-1.61 5.05-5.54v-9.55h-2.21v.86h.01Zm-2.69 7.36c-1.6 0-2.96-1.35-2.96-3.2 0-1.88 1.35-3.24 2.96-3.24 1.6 0 2.84 1.37 2.84 3.23.01 1.85-1.24 3.2-2.84 3.2Zm30.5-13.85h-5.6V37.5h2.34v-5.93h3.27c2.58 0 5.12-1.87 5.12-4.84 0-2.98-2.56-4.86-5.14-4.86Zm.04 7.52H124v-5.36h3.31a2.71 2.71 0 0 1 2.74 2.67c0 1.23-.99 2.69-2.74 2.69Zm14.43-2.24c-1.69 0-3.44.75-4.17 2.39l2.08.86c.44-.86 1.26-1.15 2.13-1.15 1.2 0 2.43.73 2.44 2.01v.17a5.22 5.22 0 0 0-2.43-.6c-2.24 0-4.5 1.22-4.5 3.51 0 2.09 1.82 3.44 3.87 3.44 1.56 0 2.44-.7 2.98-1.53h.07v1.22h2.25v-6c.01-2.77-2.06-4.32-4.72-4.32Zm-.29 8.57c-.76 0-1.82-.4-1.82-1.33 0-1.2 1.32-1.66 2.47-1.66 1.03 0 1.51.22 2.13.52a2.82 2.82 0 0 1-2.78 2.47Zm13.23-8.23L152 34.27h-.07l-2.78-6.77h-2.51l4.16 9.48-2.38 5.26h2.44l6.41-14.74h-2.6Zm-21 10H136V21.87h-2.33V37.5Z" fill="#fff"/><path d="M13.05 9.42c-.36.4-.57 1-.57 1.75v27.65c0 .78.2 1.38.57 1.75l.09.1 15.49-15.48v-.38L13.13 9.34l-.08.08Z" fill="url(#paint0_linear_451_5337)"/><path d="m33.79 30.35-5.16-5.16v-.38l5.16-5.16.11.06 6.11 3.48c1.75.98 1.75 2.6 0 3.6l-6.11 3.48-.11.08Z" fill="url(#paint1_linear_451_5337)"/><path d="M33.9 30.27 28.62 25 13.05 40.58c.57.6 1.52.68 2.6.07L33.9 30.27Z" fill="url(#paint2_linear_451_5337)"/><path d="M33.9 19.72 15.64 9.35c-1.08-.61-2.03-.54-2.6.07L28.63 25l5.27-5.28Z" fill="url(#paint3_linear_451_5337)"/><path opacity=".2" d="M33.79 30.16 15.64 40.47c-1.02.58-1.93.54-2.5.02l-.09.08.09.09c.58.53 1.48.56 2.5-.01L33.9 30.27l-.11-.11Z" fill="#000"/><path opacity=".12" d="M13.05 40.4a2.52 2.52 0 0 1-.58-1.75v.19c0 .77.22 1.37.58 1.75l.09-.1-.09-.1Z" fill="#000"/><path opacity=".12" d="m40.01 26.63-6.24 3.53.12.11L40 26.8c.87-.5 1.31-1.15 1.31-1.8-.06.59-.5 1.18-1.3 1.63Z" fill="#000"/><path opacity=".25" d="M15.64 9.52 40 23.37c.79.45 1.24 1.03 1.31 1.63 0-.65-.43-1.32-1.3-1.8L15.63 9.35c-1.75-.99-3.18-.17-3.18 1.83v.2c0-2.02 1.44-2.85 3.18-1.86Z" fill="#fff"/><path d="M52.64 17.84h-.93v-2.52h.74c.65-.56.96-1.5.95-2.87v-3.7h5.01v6.57h.84v2.52h-.92v-1.59h-5.7v1.59Zm1.74-5.38a5 5 0 0 1-.72 2.88h3.79V9.68h-3.07v2.78Z" fill="#fff" stroke="#fff" stroke-width=".2" stroke-miterlimit="10"/><path d="M66.76 15.27a3.66 3.66 0 0 1-2.75 1.14 3.84 3.84 0 0 1-3.85-3.91 3.82 3.82 0 0 1 3.85-3.91 3.85 3.85 0 0 1 3.86 3.91 3.8 3.8 0 0 1-1.1 2.77Zm-4.78-.62c.55.56 1.23.84 2.03.84.8 0 1.5-.28 2.04-.84.55-.56.84-1.28.84-2.15a2.9 2.9 0 0 0-.84-2.15 2.74 2.74 0 0 0-2.04-.84c-.8 0-1.48.28-2.03.84a2.95 2.95 0 0 0-.84 2.15c0 .87.29 1.59.84 2.15Z" fill="#fff" stroke="#fff" stroke-width=".2" stroke-miterlimit="10"/><path d="M72.73 16.41c-1.1 0-2.03-.37-2.78-1.12a3.79 3.79 0 0 1-1.12-2.8c0-1.13.37-2.05 1.12-2.8a3.77 3.77 0 0 1 2.78-1.13c1.12 0 2.05.41 2.75 1.23l-.68.65a2.52 2.52 0 0 0-2.09-.95c-.81 0-1.51.27-2.07.82a2.9 2.9 0 0 0-.84 2.16 2.85 2.85 0 0 0 2.91 2.99c.9 0 1.67-.36 2.3-1.09l.68.68a3.6 3.6 0 0 1-1.29.97c-.51.28-1.07.4-1.67.4Z" fill="#fff" stroke="#fff" stroke-width=".2" stroke-miterlimit="10"/><path d="M79.6 16.25h-.96V9.68h-2.1v-.93h5.15v.93h-2.1v6.57h.01Z" fill="#fff" stroke="#fff" stroke-width=".2" stroke-miterlimit="10"/><path d="m88.31 8.75-2.83 6.32c-.4.9-.98 1.34-1.75 1.34-.23 0-.48-.05-.75-.16l.25-.89c.16.09.32.14.5.14a.9.9 0 0 0 .52-.13c.13-.08.24-.24.34-.47l.27-.6-2.52-5.55h1.14l1.85 4.3h.03l1.82-4.3h1.13Z" fill="#fff" stroke="#fff" stroke-width=".2" stroke-miterlimit="10"/><path d="M89.4 16.25v-7.5h5.43v7.5h-.97V9.68h-3.5v6.57h-.96Z" fill="#fff" stroke="#fff" stroke-width=".2" stroke-miterlimit="10"/><path d="M96.54 16.25v-7.5h.96v3.21h3.75V8.75h.96v7.5h-.96v-3.39H97.5v3.39h-.96Z" fill="#fff" stroke="#fff" stroke-width=".2" stroke-miterlimit="10"/><path d="M110.08 15.27a3.66 3.66 0 0 1-2.75 1.14 3.84 3.84 0 0 1-3.85-3.91 3.82 3.82 0 0 1 3.85-3.91 3.85 3.85 0 0 1 3.86 3.91 3.86 3.86 0 0 1-1.11 2.77Zm-4.8-.62c.56.56 1.25.84 2.05.84.8 0 1.48-.28 2.03-.84.55-.56.84-1.28.84-2.15a2.9 2.9 0 0 0-.84-2.15 2.74 2.74 0 0 0-2.03-.84c-.8 0-1.5.28-2.04.84a2.95 2.95 0 0 0-.84 2.15c0 .87.28 1.59.84 2.15Z" fill="#fff" stroke="#fff" stroke-width=".2" stroke-miterlimit="10"/><path d="M115.11 16.25v-7.5h2.72c.58 0 1.1.2 1.52.57.43.4.65.88.65 1.47a1.68 1.68 0 0 1-1.01 1.55v.04a1.84 1.84 0 0 1 1.27 1.72c0 .61-.22 1.13-.67 1.53-.45.4-.99.6-1.6.6h-2.88v.02Zm.97-4.29h1.75c.36 0 .64-.12.87-.36a1.1 1.1 0 0 0 0-1.57 1.07 1.07 0 0 0-.84-.37h-1.78v2.3Zm0 3.36H118c.38 0 .68-.12.9-.38.23-.26.35-.54.35-.85 0-.31-.11-.59-.36-.84a1.24 1.24 0 0 0-.94-.39h-1.9v2.46h.02Z" fill="#fff" stroke="#fff" stroke-width=".2" stroke-miterlimit="10"/></g><defs><linearGradient id="paint0_linear_451_5337" x1="27.25" y1="10.89" x2="6.27" y2="31.86" gradientUnits="userSpaceOnUse"><stop stop-color="#00A0FF"/><stop offset=".01" stop-color="#00A1FF"/><stop offset=".26" stop-color="#00BEFF"/><stop offset=".51" stop-color="#00D2FF"/><stop offset=".76" stop-color="#00DFFF"/><stop offset="1" stop-color="#00E3FF"/></linearGradient><linearGradient id="paint1_linear_451_5337" x1="42.29" y1="25" x2="12.05" y2="25" gradientUnits="userSpaceOnUse"><stop stop-color="#FFE000"/><stop offset=".41" stop-color="#FFBD00"/><stop offset=".78" stop-color="orange"/><stop offset="1" stop-color="#FF9C00"/></linearGradient><linearGradient id="paint2_linear_451_5337" x1="31.03" y1="27.87" x2="2.59" y2="56.32" gradientUnits="userSpaceOnUse"><stop stop-color="#FF3A44"/><stop offset="1" stop-color="#C31162"/></linearGradient><linearGradient id="paint3_linear_451_5337" x1="9.12" y1=".22" x2="21.82" y2="12.92" gradientUnits="userSpaceOnUse"><stop stop-color="#32A071"/><stop offset=".07" stop-color="#2DA771"/><stop offset=".48" stop-color="#15CF74"/><stop offset=".8" stop-color="#06E775"/><stop offset="1" stop-color="#00F076"/></linearGradient><clipPath id="clip0_451_5337"><path fill="#fff" d="M0 0h168.75v50H0z"/></clipPath></defs></svg>