<svg width="0" height="0" class="hidden">

	<symbol xmlns="http://www.w3.org/2000/svg" viewBox="0 0 24 24" id="arrow-down"><path d="m6 9.293 1.414-1.414 4.293 4.293L16 7.879l1.414 1.414L11.707 15 6 9.293Z"/></symbol>

	<symbol xmlns="http://www.w3.org/2000/svg" viewBox="0 0 24 24" id="phone"><path d="M19.44 13c-.22 0-.45-.07-.67-.12-.45-.1-.88-.23-1.31-.4a2 2 0 0 0-2.48 1l-.22.46a12.18 12.18 0 0 1-4.66-4.66l.42-.28a2 2 0 0 0 1-2.48 10.32 10.32 0 0 1-.51-2 3 3 0 0 0-3-2.48h-3a3 3 0 0 0-3 3.4 19 19 0 0 0 16.52 16.47h.38a3 3 0 0 0 3-3.01v-3a3 3 0 0 0-2.47-2.9Zm.5 6a1 1 0 0 1-.72.96c-.15.04-.3.06-.44.04A17 17 0 0 1 4.07 5.22a1.09 1.09 0 0 1 .25-.82 1 1 0 0 1 .75-.34h3a1 1 0 0 1 1 .79 10.84 10.84 0 0 0 .61 2.36l-1.4.65a1 1 0 0 0-.49 1.33 14.49 14.49 0 0 0 7 7c.24.1.52.1.76 0a1 1 0 0 0 .57-.52l.62-1.4a13.69 13.69 0 0 0 2.39.6 1 1 0 0 1 .79 1l.02 3.13Z"/></symbol>

	<symbol xmlns="http://www.w3.org/2000/svg" viewBox="0 0 24 24" id="envelope"><path d="M19 4H5a3 3 0 0 0-3 3v10a3 3 0 0 0 3 3h14a3 3 0 0 0 3-3V7a3 3 0 0 0-3-3ZM5 6h14a1 1 0 0 1 1 1l-8 4.88L4 7a1 1 0 0 1 1-1Zm15 11a1 1 0 0 1-1 1H5a1 1 0 0 1-1-1V9.28l7.48 4.57a1 1 0 0 0 1 0L20 9.28V17Z"/></symbol>

</svg>