<svg fill="none" xmlns="http://www.w3.org/2000/svg" viewBox="0 0 24 29"><path d="m14.38 6.02-.08 1.02c-.04.55.3 1.06.82 1.21a9.52 9.52 0 0 1-2.3 18.6 9.52 9.52 0 0 1-3.2-18.6c.52-.15.86-.66.82-1.21l-.08-1.02c-5.4.95-9.5 5.67-9.5 11.33 0 6.56 5.5 11.86 12.14 11.5A11.83 11.83 0 0 0 23.88 17.6a11.53 11.53 0 0 0-9.5-11.58Z" fill="#fff"/><path d="M12.37 20.44h.14a3.03 3.03 0 0 0 2.87-2.7c.15-1.54-.98-2.6-2.24-3.3-.26-.16-.48-.36-.46-.66l.93-12.02C13.58.9 12.92.6 12.37.6c-.56 0-1.22.3-1.25 1.14v.01l.93 12.02c.02.3-.2.5-.46.65-1.26.71-2.4 1.77-2.23 3.3a3.04 3.04 0 0 0 3 2.7h.01Z" fill="#fff"/></svg>