<svg fill="none" xmlns="http://www.w3.org/2000/svg" viewBox="0 0 145 50"><path d="M46.8 32.03c-1.24-1.15-1.9-2.74-1.97-4.77l-.03-1.13.03-1.13c.08-2.04.73-3.63 1.97-4.78 1.23-1.15 2.88-1.72 4.96-1.72 1.48 0 2.74.26 3.77.79a5.85 5.85 0 0 1 2.29 1.93c.5.77.77 1.5.8 2.2a.55.55 0 0 1-.18.47.7.7 0 0 1-.5.2h-2.51c-.2 0-.36-.04-.45-.13-.1-.08-.2-.24-.29-.46a3.3 3.3 0 0 0-1.11-1.56 3.03 3.03 0 0 0-1.77-.48c-.96 0-1.7.3-2.25.9-.53.61-.82 1.53-.86 2.78l-.03 1.04.03.94c.12 2.44 1.15 3.67 3.11 3.67a3.1 3.1 0 0 0 1.78-.47c.45-.3.82-.83 1.1-1.56.08-.21.17-.36.27-.46.1-.09.26-.14.47-.14h2.51c.19 0 .35.07.5.2.14.13.2.3.18.48a4.5 4.5 0 0 1-.8 2.13 5.95 5.95 0 0 1-2.25 1.97 8 8 0 0 1-3.82.82c-2.07 0-3.72-.58-4.95-1.73Z" fill="#fff"/><path d="M62.92 32.06c-1-1.13-1.5-2.68-1.5-4.66v-7.94c0-.2.07-.37.2-.5.13-.12.3-.18.48-.18h2.54c.19 0 .35.07.48.2s.2.3.2.48v7.77c0 2.32 1 3.48 3.02 3.48.98 0 1.76-.32 2.33-.94a3.6 3.6 0 0 0 .87-2.54v-7.77c0-.2.06-.37.2-.5.12-.12.28-.18.47-.18h2.52c.2 0 .37.06.5.19.11.12.18.28.18.49V32.8c0 .19-.07.35-.19.48a.64.64 0 0 1-.5.2h-2.34a.65.65 0 0 1-.48-.2.65.65 0 0 1-.2-.48v-1.16c-1.03 1.41-2.6 2.12-4.69 2.12-1.73 0-3.1-.57-4.1-1.7Z" fill="#fff"/><path d="M79.36 38.66a.64.64 0 0 1-.2-.5v-18.7c0-.21.07-.38.2-.5s.3-.18.48-.18h2.26c.2 0 .38.07.51.2s.2.29.2.48v1.13c1-1.4 2.5-2.1 4.49-2.1 1.9 0 3.36.6 4.38 1.8a7.65 7.65 0 0 1 1.64 4.82 13.12 13.12 0 0 1 0 2.03 7.52 7.52 0 0 1-1.63 4.8c-1.02 1.2-2.49 1.81-4.4 1.81a5.07 5.07 0 0 1-4.32-2v6.41c0 .21-.06.37-.18.5a.67.67 0 0 1-.5.18h-2.45a.67.67 0 0 1-.48-.18Zm10.09-11.69a9.69 9.69 0 0 0 0-1.7c-.13-2.48-1.2-3.72-3.22-3.72-1.08 0-1.88.34-2.4 1.04-.53.7-.82 1.55-.85 2.54a15.4 15.4 0 0 0 0 2.18c.03.94.33 1.74.87 2.4.55.66 1.34 1 2.38 1 2.01 0 3.09-1.25 3.22-3.74Z" fill="#fff"/><path d="M97.89 32.03c-1.24-1.15-1.9-2.74-1.97-4.77l-.03-1.13.03-1.13c.08-2.04.73-3.63 1.97-4.78 1.23-1.15 2.88-1.72 4.95-1.72 1.5 0 2.75.26 3.78.79a5.85 5.85 0 0 1 2.29 1.93c.5.77.77 1.5.8 2.2a.55.55 0 0 1-.18.47.7.7 0 0 1-.5.2h-2.51c-.2 0-.36-.04-.45-.13-.1-.08-.2-.24-.29-.46a3.3 3.3 0 0 0-1.11-1.56 3.03 3.03 0 0 0-1.77-.48c-.96 0-1.7.3-2.25.9-.53.61-.82 1.53-.86 2.78l-.02 1.04.02.94c.12 2.44 1.15 3.67 3.11 3.67a3.1 3.1 0 0 0 1.78-.47c.45-.3.82-.83 1.1-1.56.08-.21.17-.36.27-.46.1-.09.26-.14.47-.14h2.51a.7.7 0 0 1 .5.2c.14.13.2.3.18.48a4.5 4.5 0 0 1-.8 2.13 5.95 5.95 0 0 1-2.25 1.97 8 8 0 0 1-3.82.82c-2.07 0-3.72-.58-4.95-1.73Z" fill="#fff"/><path d="M114 32.06c-1-1.13-1.49-2.68-1.49-4.66v-7.94c0-.2.07-.37.2-.5.13-.12.3-.18.48-.18h2.54c.19 0 .35.07.48.2s.2.3.2.48v7.77c0 2.32 1 3.48 3.02 3.48.98 0 1.76-.32 2.33-.94a3.6 3.6 0 0 0 .86-2.54v-7.77c0-.2.07-.37.2-.5.13-.12.3-.18.48-.18h2.52c.2 0 .37.06.5.19.11.12.18.28.18.49V32.8c0 .19-.07.35-.19.48a.64.64 0 0 1-.5.2h-2.34a.65.65 0 0 1-.48-.2.65.65 0 0 1-.2-.48v-1.16c-1.03 1.41-2.6 2.12-4.69 2.12a5.2 5.2 0 0 1-4.1-1.7Z" fill="#fff"/><path d="M130.46 38.66a.64.64 0 0 1-.2-.5v-18.7c0-.21.06-.38.2-.5.13-.12.29-.18.48-.18h2.26c.2 0 .37.07.5.2.14.13.2.29.2.48v1.13c1-1.4 2.5-2.1 4.5-2.1 1.9 0 3.36.6 4.38 1.8a7.66 7.66 0 0 1 1.63 4.82 13.3 13.3 0 0 1 0 2.03 7.52 7.52 0 0 1-1.62 4.8c-1.03 1.2-2.5 1.81-4.4 1.81a5.07 5.07 0 0 1-4.32-2v6.41c0 .21-.06.37-.18.5a.67.67 0 0 1-.5.18h-2.45a.67.67 0 0 1-.48-.18Zm10.08-11.69a9.62 9.62 0 0 0 0-1.7c-.13-2.48-1.2-3.72-3.22-3.72-1.07 0-1.87.34-2.4 1.04-.53.7-.8 1.55-.85 2.54a15.6 15.6 0 0 0 0 2.18c.04.94.33 1.74.88 2.4.54.66 1.34 1 2.37 1 2.02 0 3.1-1.25 3.22-3.74Z" fill="#fff"/><path d="m21.07 8.43-.13 1.6c-.07.84.45 1.63 1.27 1.88a14.82 14.82 0 0 1 10.48 15.14 14.75 14.75 0 0 1-14.06 13.8 14.82 14.82 0 0 1-15.5-14.78c0-6.67 4.43-12.32 10.5-14.16a1.83 1.83 0 0 0 1.3-1.9l-.13-1.58A17.95 17.95 0 0 0 0 26.07c0 10.21 8.58 18.46 18.9 17.9 9.02-.48 16.75-8.49 16.94-17.51A17.95 17.95 0 0 0 21.07 8.43Z" fill="#fff"/><path d="M17.93 30.88h.22a4.72 4.72 0 0 0 4.46-4.22c.25-2.38-1.52-4.03-3.47-5.13-.42-.24-.76-.55-.72-1.03l1.45-18.7V1.8C19.82.47 18.79 0 17.93 0c-.87 0-1.9.47-1.95 1.79v.01l1.45 18.7c.04.48-.3.8-.71 1.03-1.96 1.1-3.72 2.75-3.48 5.13a4.73 4.73 0 0 0 4.68 4.22h.01Z" fill="#fff"/></svg>