<svg width="71" height="10" viewBox="0 0 71 10" fill="none" xmlns="http://www.w3.org/2000/svg">
<path fill-rule="evenodd" clip-rule="evenodd" d="M6.00116 0C3.0447 0 0.902344 2.22803 0.902344 4.92738C0.902344 7.66957 3.00186 9.85475 5.95831 9.85475C8.91477 9.85475 11.0571 7.62672 11.0571 4.92738C11.0571 2.18518 8.95762 0 6.00116 0ZM5.99969 1.92871C7.67075 1.92871 8.87048 3.29981 8.87048 4.92799C8.87048 6.59901 7.67075 7.92726 5.99969 7.92726C4.32864 7.92726 3.12891 6.55616 3.12891 4.92799C3.12891 3.25696 4.32864 1.92871 5.99969 1.92871Z" fill="white"/>
<path fill-rule="evenodd" clip-rule="evenodd" d="M16.1128 2.09998H13.1992V0.171875H21.083V2.09998H18.1694V9.68386H16.07V2.09998H16.1128Z" fill="white"/>
<path fill-rule="evenodd" clip-rule="evenodd" d="M28.026 0.0859375H26.0978L22.0273 9.68361H24.1697L25.0266 7.54127H29.0543L29.9112 9.68361H32.0964L28.026 0.0859375ZM27.04 2.61385L28.3254 5.69881H25.7546L27.04 2.61385Z" fill="white"/>
<path fill-rule="evenodd" clip-rule="evenodd" d="M34.9647 0.171875H37.0642V4.32801L40.9204 0.171875H43.4484L39.5493 4.19947L43.6198 9.68386H41.0918L38.1354 5.61341L37.0214 6.77028V9.68386H34.9219V0.171875H34.9647Z" fill="white"/>
<path fill-rule="evenodd" clip-rule="evenodd" d="M50.2189 0C47.2625 0 45.1201 2.22803 45.1201 4.92738C45.1201 7.66957 47.2196 9.85475 50.176 9.85475C53.1325 9.85475 55.2748 7.62672 55.2748 4.92738C55.2748 2.18518 53.1753 0 50.2189 0ZM50.1744 1.92969C51.8455 1.92969 53.0452 3.30078 53.0452 4.92896C53.0452 6.59998 51.8883 7.92823 50.1744 7.92823C48.5034 7.92823 47.3037 6.55714 47.3037 4.92896C47.3037 3.25794 48.5034 1.92969 50.1744 1.92969Z" fill="white"/>
<path fill-rule="evenodd" clip-rule="evenodd" d="M60.3305 5.95619L56.6885 0.171875H59.1307L61.4016 3.98524L63.7153 0.171875H66.1148L62.4299 5.91334V9.7267H60.3305V5.95619Z" fill="white"/>
<path fill-rule="evenodd" clip-rule="evenodd" d="M68.8984 0.171875H70.9979V9.7267H68.8984V0.171875Z" fill="white"/>
</svg>
